<svg xmlns="http://www.w3.org/2000/svg" width="1400" height="860" viewBox="0 0 1400 860" fill="none">
<rect x="0" y="0" width="1400" height="860" fill="#fafafa"/>
<text x="44.0" y="52.0" font-family="monospace" font-size="18" font-weight="700" fill="#1e293b">server telemetry :: json-10kb-c128</text><text x="44.0" y="82.0" font-family="system-ui, -apple-system, sans-serif" font-size="14" font-weight="500" fill="#64748b">Harrow overlays Axum for server-side sar and vmstat signals</text><g><rect x="44.0" y="104.0" width="92" height="28" rx="4" fill="#fff7ed" stroke="#e2e8f0" stroke-width="1"/><rect x="56.0" y="112.0" width="12" height="12" rx="4" fill="#fff7ed" stroke="#ea580c" stroke-width="1.5"/><text x="74.0" y="122.0" font-family="monospace" font-size="12" font-weight="700" fill="#ea580c">harrow</text></g><g><rect x="156.0" y="104.0" width="92" height="28" rx="4" fill="#f8fafc" stroke="#e2e8f0" stroke-width="1"/><rect x="168.0" y="112.0" width="12" height="12" rx="4" fill="#f8fafc" stroke="#64748b" stroke-width="1.5"/><text x="186.0" y="122.0" font-family="monospace" font-size="12" font-weight="700" fill="#64748b">axum</text></g><g><rect x="44.0" y="140.0" width="642.0" height="260.0" rx="8" fill="#ffffff" stroke="#e2e8f0" stroke-width="1"/><rect x="44.0" y="140.0" width="642.0" height="4" rx="8" fill="#ea580c"/></g><text x="66.0" y="172.0" font-family="monospace" font-size="18" font-weight="700" fill="#ea580c">Server CPU Busy %</text><line x1="64.0" y1="348.0" x2="666.0" y2="348.0" stroke="#e2e8f0" stroke-width="1"/><text x="664.0" y="344.0" font-family="system-ui, -apple-system, sans-serif" font-size="10" font-weight="500" fill="#94a3b8">0.0 %</text><line x1="64.0" y1="297.3" x2="666.0" y2="297.3" stroke="#e2e8f0" stroke-width="1"/><text x="664.0" y="293.3" font-family="system-ui, -apple-system, sans-serif" font-size="10" font-weight="500" fill="#94a3b8">22.0 %</text><line x1="64.0" y1="246.7" x2="666.0" y2="246.7" stroke="#e2e8f0" stroke-width="1"/><text x="664.0" y="242.7" font-family="system-ui, -apple-system, sans-serif" font-size="10" font-weight="500" fill="#94a3b8">44.0 %</text><line x1="64.0" y1="196.0" x2="666.0" y2="196.0" stroke="#e2e8f0" stroke-width="1"/><text x="664.0" y="192.0" font-family="system-ui, -apple-system, sans-serif" font-size="10" font-weight="500" fill="#94a3b8">66.1 %</text><polyline fill="none" stroke="#ea580c" stroke-width="2.5" points="64.0,347.6 88.1,347.7 112.2,347.9 136.2,348.0 160.3,348.0 184.4,348.0 208.5,348.0 232.6,348.0 256.6,332.1 280.7,198.3 304.8,200.0 328.9,198.6 353.0,200.3 377.0,199.5 401.1,200.0 425.2,200.3 449.3,201.0 473.4,199.0 497.4,200.3 521.5,201.5 545.6,200.1 569.7,197.7 593.8,199.7 617.8,201.0 641.9,199.3 666.0,197.7" stroke-linejoin="round" stroke-linecap="round"/><polyline fill="none" stroke="#64748b" stroke-width="2.5" points="64.0,347.9 88.1,347.9 112.2,347.8 136.2,348.0 160.3,348.0 184.4,348.0 208.5,348.0 232.6,348.0 256.6,325.9 280.7,200.3 304.8,197.1 328.9,198.4 353.0,199.3 377.0,196.9 401.1,196.8 425.2,196.6 449.3,198.1 473.4,198.0 497.4,197.4 521.5,198.6 545.6,199.6 569.7,197.4 593.8,199.3 617.8,196.4 641.9,198.4 666.0,196.0" stroke-linejoin="round" stroke-linecap="round"/><text x="64.0" y="366.0" font-family="monospace" font-size="12" font-weight="600" fill="#ea580c">harrow avg 42.4 % peak 65.3</text><text x="64.0" y="382.0" font-family="monospace" font-size="12" font-weight="600" fill="#64748b">axum avg 43.0 % peak 66.1</text><g><rect x="714.0" y="140.0" width="642.0" height="260.0" rx="8" fill="#ffffff" stroke="#e2e8f0" stroke-width="1"/><rect x="714.0" y="140.0" width="642.0" height="4" rx="8" fill="#ea580c"/></g><text x="736.0" y="172.0" font-family="monospace" font-size="18" font-weight="700" fill="#ea580c">Server Net TX</text><line x1="734.0" y1="348.0" x2="1336.0" y2="348.0" stroke="#e2e8f0" stroke-width="1"/><text x="1334.0" y="344.0" font-family="system-ui, -apple-system, sans-serif" font-size="10" font-weight="500" fill="#94a3b8">0.0 MB/s</text><line x1="734.0" y1="297.3" x2="1336.0" y2="297.3" stroke="#e2e8f0" stroke-width="1"/><text x="1334.0" y="293.3" font-family="system-ui, -apple-system, sans-serif" font-size="10" font-weight="500" fill="#94a3b8">3206.4 MB/s</text><line x1="734.0" y1="246.7" x2="1336.0" y2="246.7" stroke="#e2e8f0" stroke-width="1"/><text x="1334.0" y="242.7" font-family="system-ui, -apple-system, sans-serif" font-size="10" font-weight="500" fill="#94a3b8">6412.8 MB/s</text><line x1="734.0" y1="196.0" x2="1336.0" y2="196.0" stroke="#e2e8f0" stroke-width="1"/><text x="1334.0" y="192.0" font-family="system-ui, -apple-system, sans-serif" font-size="10" font-weight="500" fill="#94a3b8">9619.2 MB/s</text><polyline fill="none" stroke="#ea580c" stroke-width="2.5" points="734.0,348.0 758.1,348.0 782.2,348.0 806.2,348.0 830.3,348.0 854.4,348.0 878.5,348.0 902.6,286.3 926.6,196.8 950.7,198.5 974.8,197.9 998.9,196.9 1023.0,197.9 1047.0,198.0 1071.1,198.9 1095.2,197.3 1119.3,198.4 1143.4,199.2 1167.4,199.0 1191.5,197.4 1215.6,197.3 1239.7,198.5 1263.8,197.1 1287.8,197.4 1311.9,198.6 1336.0,197.2" stroke-linejoin="round" stroke-linecap="round"/><polyline fill="none" stroke="#64748b" stroke-width="2.5" points="734.0,348.0 758.1,348.0 782.2,348.0 806.2,348.0 830.3,348.0 854.4,348.0 878.5,348.0 902.6,260.2 926.6,198.1 950.7,197.1 974.8,198.8 998.9,198.3 1023.0,196.3 1047.0,196.0 1071.1,198.3 1095.2,196.9 1119.3,197.5 1143.4,197.0 1167.4,198.1 1191.5,197.4 1215.6,198.3 1239.7,197.5 1263.8,197.4 1287.8,196.3 1311.9,196.3 1336.0,197.0" stroke-linejoin="round" stroke-linecap="round"/><text x="734.0" y="366.0" font-family="monospace" font-size="12" font-weight="600" fill="#ea580c">harrow avg 6726.4 MB/s peak 9571.6</text><text x="734.0" y="382.0" font-family="monospace" font-size="12" font-weight="600" fill="#64748b">axum avg 6813.6 MB/s peak 9619.2</text><g><rect x="44.0" y="428.0" width="642.0" height="260.0" rx="8" fill="#ffffff" stroke="#e2e8f0" stroke-width="1"/><rect x="44.0" y="428.0" width="642.0" height="4" rx="8" fill="#ea580c"/></g><text x="66.0" y="460.0" font-family="monospace" font-size="18" font-weight="700" fill="#ea580c">VMstat Runnable (r)</text><line x1="64.0" y1="636.0" x2="666.0" y2="636.0" stroke="#e2e8f0" stroke-width="1"/><text x="664.0" y="632.0" font-family="system-ui, -apple-system, sans-serif" font-size="10" font-weight="500" fill="#94a3b8">0.0 threads</text><line x1="64.0" y1="585.3" x2="666.0" y2="585.3" stroke="#e2e8f0" stroke-width="1"/><text x="664.0" y="581.3" font-family="system-ui, -apple-system, sans-serif" font-size="10" font-weight="500" fill="#94a3b8">13.3 threads</text><line x1="64.0" y1="534.7" x2="666.0" y2="534.7" stroke="#e2e8f0" stroke-width="1"/><text x="664.0" y="530.7" font-family="system-ui, -apple-system, sans-serif" font-size="10" font-weight="500" fill="#94a3b8">26.7 threads</text><line x1="64.0" y1="484.0" x2="666.0" y2="484.0" stroke="#e2e8f0" stroke-width="1"/><text x="664.0" y="480.0" font-family="system-ui, -apple-system, sans-serif" font-size="10" font-weight="500" fill="#94a3b8">40.0 threads</text><polyline fill="none" stroke="#ea580c" stroke-width="2.5" points="64.0,636.0 88.1,636.0 112.2,636.0 136.2,636.0 160.3,636.0 184.4,636.0 208.5,636.0 232.6,636.0 256.6,636.0 280.7,636.0 304.8,506.8 328.9,544.8 353.0,552.4 377.0,499.2 401.1,563.8 425.2,560.0 449.3,495.4 473.4,579.0 497.4,499.2 521.5,537.2 545.6,510.6 569.7,525.8 593.8,522.0 617.8,514.4 641.9,533.4 666.0,510.6" stroke-linejoin="round" stroke-linecap="round"/><polyline fill="none" stroke="#64748b" stroke-width="2.5" points="64.0,636.0 88.1,636.0 112.2,636.0 136.2,636.0 160.3,636.0 184.4,636.0 208.5,636.0 232.6,636.0 256.6,636.0 280.7,636.0 304.8,541.0 328.9,484.0 353.0,529.6 377.0,510.6 401.1,541.0 425.2,495.4 449.3,529.6 473.4,525.8 497.4,537.2 521.5,537.2 545.6,503.0 569.7,522.0 593.8,491.6 617.8,537.2 641.9,518.2 666.0,544.8" stroke-linejoin="round" stroke-linecap="round"/><text x="64.0" y="654.0" font-family="monospace" font-size="12" font-weight="600" fill="#ea580c">harrow avg 17.4 threads peak 37.0</text><text x="64.0" y="670.0" font-family="monospace" font-size="12" font-weight="600" fill="#64748b">axum avg 18.5 threads peak 40.0</text><g><rect x="714.0" y="428.0" width="642.0" height="260.0" rx="8" fill="#ffffff" stroke="#e2e8f0" stroke-width="1"/><rect x="714.0" y="428.0" width="642.0" height="4" rx="8" fill="#ea580c"/></g><text x="736.0" y="460.0" font-family="monospace" font-size="18" font-weight="700" fill="#ea580c">VMstat Context Switches</text><line x1="734.0" y1="636.0" x2="1336.0" y2="636.0" stroke="#e2e8f0" stroke-width="1"/><text x="1334.0" y="632.0" font-family="system-ui, -apple-system, sans-serif" font-size="10" font-weight="500" fill="#94a3b8">0.0 /s</text><line x1="734.0" y1="585.3" x2="1336.0" y2="585.3" stroke="#e2e8f0" stroke-width="1"/><text x="1334.0" y="581.3" font-family="system-ui, -apple-system, sans-serif" font-size="10" font-weight="500" fill="#94a3b8">94425.0 /s</text><line x1="734.0" y1="534.7" x2="1336.0" y2="534.7" stroke="#e2e8f0" stroke-width="1"/><text x="1334.0" y="530.7" font-family="system-ui, -apple-system, sans-serif" font-size="10" font-weight="500" fill="#94a3b8">188850.0 /s</text><line x1="734.0" y1="484.0" x2="1336.0" y2="484.0" stroke="#e2e8f0" stroke-width="1"/><text x="1334.0" y="480.0" font-family="system-ui, -apple-system, sans-serif" font-size="10" font-weight="500" fill="#94a3b8">283275.0 /s</text><polyline fill="none" stroke="#ea580c" stroke-width="2.5" points="734.0,636.0 758.1,635.8 782.2,635.7 806.2,635.8 830.3,635.9 854.4,635.9 878.5,635.9 902.6,635.9 926.6,635.9 950.7,635.9 974.8,567.8 998.9,497.8 1023.0,497.5 1047.0,497.6 1071.1,497.8 1095.2,497.6 1119.3,497.5 1143.4,497.6 1167.4,497.3 1191.5,496.8 1215.6,497.6 1239.7,497.3 1263.8,496.1 1287.8,496.5 1311.9,496.8 1336.0,497.4" stroke-linejoin="round" stroke-linecap="round"/><polyline fill="none" stroke="#64748b" stroke-width="2.5" points="734.0,636.0 758.1,635.7 782.2,635.8 806.2,635.8 830.3,635.7 854.4,635.9 878.5,635.9 902.6,635.9 926.6,635.9 950.7,635.9 974.8,561.0 998.9,485.9 1023.0,484.8 1047.0,485.3 1071.1,484.1 1095.2,485.6 1119.3,484.4 1143.4,485.6 1167.4,484.7 1191.5,484.9 1215.6,484.6 1239.7,484.3 1263.8,484.0 1287.8,485.7 1311.9,484.2 1336.0,484.5" stroke-linejoin="round" stroke-linecap="round"/><text x="734.0" y="654.0" font-family="monospace" font-size="12" font-weight="600" fill="#ea580c">harrow avg 154147.3 /s peak 260794.0</text><text x="734.0" y="670.0" font-family="monospace" font-size="12" font-weight="600" fill="#64748b">axum avg 167985.2 /s peak 283275.0</text></svg>