<svg xmlns="http://www.w3.org/2000/svg" width="1400" height="860" viewBox="0 0 1400 860" fill="none">
<rect x="0" y="0" width="1400" height="860" fill="#fafafa"/>
<text x="44.0" y="52.0" font-family="monospace" font-size="18" font-weight="700" fill="#1e293b">server telemetry :: msgpack-1kb-c32</text><text x="44.0" y="82.0" font-family="system-ui, -apple-system, sans-serif" font-size="14" font-weight="500" fill="#64748b">Harrow overlays Axum for server-side sar and vmstat signals</text><g><rect x="44.0" y="104.0" width="92" height="28" rx="4" fill="#fff7ed" stroke="#e2e8f0" stroke-width="1"/><rect x="56.0" y="112.0" width="12" height="12" rx="4" fill="#fff7ed" stroke="#ea580c" stroke-width="1.5"/><text x="74.0" y="122.0" font-family="monospace" font-size="12" font-weight="700" fill="#ea580c">harrow</text></g><g><rect x="156.0" y="104.0" width="92" height="28" rx="4" fill="#f8fafc" stroke="#e2e8f0" stroke-width="1"/><rect x="168.0" y="112.0" width="12" height="12" rx="4" fill="#f8fafc" stroke="#64748b" stroke-width="1.5"/><text x="186.0" y="122.0" font-family="monospace" font-size="12" font-weight="700" fill="#64748b">axum</text></g><g><rect x="44.0" y="140.0" width="642.0" height="260.0" rx="8" fill="#ffffff" stroke="#e2e8f0" stroke-width="1"/><rect x="44.0" y="140.0" width="642.0" height="4" rx="8" fill="#ea580c"/></g><text x="66.0" y="172.0" font-family="monospace" font-size="18" font-weight="700" fill="#ea580c">Server CPU Busy %</text><line x1="64.0" y1="348.0" x2="666.0" y2="348.0" stroke="#e2e8f0" stroke-width="1"/><text x="664.0" y="344.0" font-family="system-ui, -apple-system, sans-serif" font-size="10" font-weight="500" fill="#94a3b8">0.0 %</text><line x1="64.0" y1="297.3" x2="666.0" y2="297.3" stroke="#e2e8f0" stroke-width="1"/><text x="664.0" y="293.3" font-family="system-ui, -apple-system, sans-serif" font-size="10" font-weight="500" fill="#94a3b8">5.7 %</text><line x1="64.0" y1="246.7" x2="666.0" y2="246.7" stroke="#e2e8f0" stroke-width="1"/><text x="664.0" y="242.7" font-family="system-ui, -apple-system, sans-serif" font-size="10" font-weight="500" fill="#94a3b8">11.4 %</text><line x1="64.0" y1="196.0" x2="666.0" y2="196.0" stroke="#e2e8f0" stroke-width="1"/><text x="664.0" y="192.0" font-family="system-ui, -apple-system, sans-serif" font-size="10" font-weight="500" fill="#94a3b8">17.2 %</text><polyline fill="none" stroke="#ea580c" stroke-width="2.5" points="64.0,347.5 88.1,347.8 112.2,347.1 136.2,348.0 160.3,348.0 184.4,348.0 208.5,348.0 232.6,348.0 256.6,343.7 280.7,206.5 304.8,211.8 328.9,217.6 353.0,216.4 377.0,216.2 401.1,212.6 425.2,211.5 449.3,205.7 473.4,205.6 497.4,206.6 521.5,208.3 545.6,212.7 569.7,216.8 593.8,206.3 617.8,206.3 641.9,205.9 666.0,204.9" stroke-linejoin="round" stroke-linecap="round"/><polyline fill="none" stroke="#64748b" stroke-width="2.5" points="64.0,347.1 88.1,347.5 112.2,347.6 136.2,347.8 160.3,347.8 184.4,347.6 208.5,347.8 232.6,347.8 256.6,332.3 280.7,197.9 304.8,202.9 328.9,203.2 353.0,202.0 377.0,202.0 401.1,196.1 425.2,208.4 449.3,197.9 473.4,196.4 497.4,201.6 521.5,196.0 545.6,199.7 569.7,208.6 593.8,200.1 617.8,205.1 641.9,206.9 666.0,201.1" stroke-linejoin="round" stroke-linecap="round"/><text x="64.0" y="366.0" font-family="monospace" font-size="12" font-weight="600" fill="#ea580c">harrow avg 10.2 % peak 16.1</text><text x="64.0" y="382.0" font-family="monospace" font-size="12" font-weight="600" fill="#64748b">axum avg 10.9 % peak 17.2</text><g><rect x="714.0" y="140.0" width="642.0" height="260.0" rx="8" fill="#ffffff" stroke="#e2e8f0" stroke-width="1"/><rect x="714.0" y="140.0" width="642.0" height="4" rx="8" fill="#ea580c"/></g><text x="736.0" y="172.0" font-family="monospace" font-size="18" font-weight="700" fill="#ea580c">Server Net TX</text><line x1="734.0" y1="348.0" x2="1336.0" y2="348.0" stroke="#e2e8f0" stroke-width="1"/><text x="1334.0" y="344.0" font-family="system-ui, -apple-system, sans-serif" font-size="10" font-weight="500" fill="#94a3b8">0.0 MB/s</text><line x1="734.0" y1="297.3" x2="1336.0" y2="297.3" stroke="#e2e8f0" stroke-width="1"/><text x="1334.0" y="293.3" font-family="system-ui, -apple-system, sans-serif" font-size="10" font-weight="500" fill="#94a3b8">162.9 MB/s</text><line x1="734.0" y1="246.7" x2="1336.0" y2="246.7" stroke="#e2e8f0" stroke-width="1"/><text x="1334.0" y="242.7" font-family="system-ui, -apple-system, sans-serif" font-size="10" font-weight="500" fill="#94a3b8">325.9 MB/s</text><line x1="734.0" y1="196.0" x2="1336.0" y2="196.0" stroke="#e2e8f0" stroke-width="1"/><text x="1334.0" y="192.0" font-family="system-ui, -apple-system, sans-serif" font-size="10" font-weight="500" fill="#94a3b8">488.8 MB/s</text><polyline fill="none" stroke="#ea580c" stroke-width="2.5" points="734.0,348.0 758.1,348.0 782.2,348.0 806.2,348.0 830.3,348.0 854.4,348.0 878.5,348.0 902.6,293.2 926.6,211.3 950.7,209.1 974.8,210.6 998.9,210.6 1023.0,212.6 1047.0,212.4 1071.1,212.4 1095.2,207.8 1119.3,207.1 1143.4,205.8 1167.4,205.5 1191.5,204.8 1215.6,205.6 1239.7,205.1 1263.8,204.5 1287.8,204.5 1311.9,204.5 1336.0,205.6" stroke-linejoin="round" stroke-linecap="round"/><polyline fill="none" stroke="#64748b" stroke-width="2.5" points="734.0,348.0 758.1,348.0 782.2,348.0 806.2,348.0 830.3,348.0 854.4,348.0 878.5,348.0 902.6,292.5 926.6,202.2 950.7,203.0 974.8,203.9 998.9,202.6 1023.0,205.5 1047.0,202.6 1071.1,201.9 1095.2,197.5 1119.3,196.0 1143.4,197.3 1167.4,196.7 1191.5,198.5 1215.6,201.0 1239.7,199.3 1263.8,199.2 1287.8,198.7 1311.9,201.7 1336.0,201.8" stroke-linejoin="round" stroke-linecap="round"/><text x="734.0" y="366.0" font-family="monospace" font-size="12" font-weight="600" fill="#ea580c">harrow avg 319.0 MB/s peak 461.5</text><text x="734.0" y="382.0" font-family="monospace" font-size="12" font-weight="600" fill="#64748b">axum avg 335.2 MB/s peak 488.8</text><g><rect x="44.0" y="428.0" width="642.0" height="260.0" rx="8" fill="#ffffff" stroke="#e2e8f0" stroke-width="1"/><rect x="44.0" y="428.0" width="642.0" height="4" rx="8" fill="#ea580c"/></g><text x="66.0" y="460.0" font-family="monospace" font-size="18" font-weight="700" fill="#ea580c">VMstat Runnable (r)</text><line x1="64.0" y1="636.0" x2="666.0" y2="636.0" stroke="#e2e8f0" stroke-width="1"/><text x="664.0" y="632.0" font-family="system-ui, -apple-system, sans-serif" font-size="10" font-weight="500" fill="#94a3b8">0.0 threads</text><line x1="64.0" y1="585.3" x2="666.0" y2="585.3" stroke="#e2e8f0" stroke-width="1"/><text x="664.0" y="581.3" font-family="system-ui, -apple-system, sans-serif" font-size="10" font-weight="500" fill="#94a3b8">4.7 threads</text><line x1="64.0" y1="534.7" x2="666.0" y2="534.7" stroke="#e2e8f0" stroke-width="1"/><text x="664.0" y="530.7" font-family="system-ui, -apple-system, sans-serif" font-size="10" font-weight="500" fill="#94a3b8">9.3 threads</text><line x1="64.0" y1="484.0" x2="666.0" y2="484.0" stroke="#e2e8f0" stroke-width="1"/><text x="664.0" y="480.0" font-family="system-ui, -apple-system, sans-serif" font-size="10" font-weight="500" fill="#94a3b8">14.0 threads</text><polyline fill="none" stroke="#ea580c" stroke-width="2.5" points="64.0,636.0 88.1,636.0 112.2,636.0 136.2,636.0 160.3,636.0 184.4,636.0 208.5,636.0 232.6,636.0 256.6,636.0 280.7,636.0 304.8,527.4 328.9,549.1 353.0,560.0 377.0,570.9 401.1,549.1 425.2,560.0 449.3,549.1 473.4,549.1 497.4,549.1 521.5,538.3 545.6,560.0 569.7,549.1 593.8,560.0 617.8,560.0 641.9,560.0 666.0,560.0" stroke-linejoin="round" stroke-linecap="round"/><polyline fill="none" stroke="#64748b" stroke-width="2.5" points="64.0,636.0 88.1,636.0 112.2,636.0 136.2,636.0 160.3,636.0 184.4,636.0 208.5,636.0 232.6,636.0 256.6,636.0 280.7,636.0 304.8,538.3 328.9,625.1 353.0,560.0 377.0,538.3 401.1,570.9 425.2,549.1 449.3,614.3 473.4,516.6 497.4,527.4 521.5,549.1 545.6,560.0 569.7,560.0 593.8,484.0 617.8,549.1 641.9,549.1 666.0,549.1" stroke-linejoin="round" stroke-linecap="round"/><text x="64.0" y="654.0" font-family="monospace" font-size="12" font-weight="600" fill="#ea580c">harrow avg 4.7 threads peak 10.0</text><text x="64.0" y="670.0" font-family="monospace" font-size="12" font-weight="600" fill="#64748b">axum avg 4.7 threads peak 14.0</text><g><rect x="714.0" y="428.0" width="642.0" height="260.0" rx="8" fill="#ffffff" stroke="#e2e8f0" stroke-width="1"/><rect x="714.0" y="428.0" width="642.0" height="4" rx="8" fill="#ea580c"/></g><text x="736.0" y="460.0" font-family="monospace" font-size="18" font-weight="700" fill="#ea580c">VMstat Context Switches</text><line x1="734.0" y1="636.0" x2="1336.0" y2="636.0" stroke="#e2e8f0" stroke-width="1"/><text x="1334.0" y="632.0" font-family="system-ui, -apple-system, sans-serif" font-size="10" font-weight="500" fill="#94a3b8">0.0 /s</text><line x1="734.0" y1="585.3" x2="1336.0" y2="585.3" stroke="#e2e8f0" stroke-width="1"/><text x="1334.0" y="581.3" font-family="system-ui, -apple-system, sans-serif" font-size="10" font-weight="500" fill="#94a3b8">109648.7 /s</text><line x1="734.0" y1="534.7" x2="1336.0" y2="534.7" stroke="#e2e8f0" stroke-width="1"/><text x="1334.0" y="530.7" font-family="system-ui, -apple-system, sans-serif" font-size="10" font-weight="500" fill="#94a3b8">219297.3 /s</text><line x1="734.0" y1="484.0" x2="1336.0" y2="484.0" stroke="#e2e8f0" stroke-width="1"/><text x="1334.0" y="480.0" font-family="system-ui, -apple-system, sans-serif" font-size="10" font-weight="500" fill="#94a3b8">328946.0 /s</text><polyline fill="none" stroke="#ea580c" stroke-width="2.5" points="734.0,636.0 758.1,635.8 782.2,635.8 806.2,635.8 830.3,635.9 854.4,635.9 878.5,635.9 902.6,635.9 926.6,635.9 950.7,635.9 974.8,588.7 998.9,505.3 1023.0,506.4 1047.0,504.5 1071.1,503.1 1095.2,505.0 1119.3,505.0 1143.4,504.4 1167.4,499.7 1191.5,498.6 1215.6,497.6 1239.7,497.6 1263.8,497.1 1287.8,497.9 1311.9,497.4 1336.0,497.0" stroke-linejoin="round" stroke-linecap="round"/><polyline fill="none" stroke="#64748b" stroke-width="2.5" points="734.0,636.0 758.1,635.7 782.2,635.8 806.2,635.8 830.3,635.9 854.4,635.8 878.5,635.9 902.6,635.9 926.6,635.9 950.7,635.9 974.8,577.2 998.9,489.7 1023.0,489.6 1047.0,490.7 1071.1,488.8 1095.2,491.6 1119.3,488.0 1143.4,487.9 1167.4,485.9 1191.5,484.0 1215.6,484.3 1239.7,484.6 1263.8,485.8 1287.8,488.3 1311.9,484.3 1336.0,485.0" stroke-linejoin="round" stroke-linecap="round"/><text x="734.0" y="654.0" font-family="monospace" font-size="12" font-weight="600" fill="#ea580c">harrow avg 172466.7 /s peak 300802.0</text><text x="734.0" y="670.0" font-family="monospace" font-size="12" font-weight="600" fill="#64748b">axum avg 190749.2 /s peak 328946.0</text></svg>