<svg xmlns="http://www.w3.org/2000/svg" width="1400" height="860" viewBox="0 0 1400 860" fill="none">
<rect x="0" y="0" width="1400" height="860" fill="#fafafa"/>
<text x="44.0" y="52.0" font-family="monospace" font-size="18" font-weight="700" fill="#1e293b">server telemetry :: json-1kb-c128</text><text x="44.0" y="82.0" font-family="system-ui, -apple-system, sans-serif" font-size="14" font-weight="500" fill="#64748b">Harrow overlays Axum for server-side sar and vmstat signals</text><g><rect x="44.0" y="104.0" width="92" height="28" rx="4" fill="#fff7ed" stroke="#e2e8f0" stroke-width="1"/><rect x="56.0" y="112.0" width="12" height="12" rx="4" fill="#fff7ed" stroke="#ea580c" stroke-width="1.5"/><text x="74.0" y="122.0" font-family="monospace" font-size="12" font-weight="700" fill="#ea580c">harrow</text></g><g><rect x="156.0" y="104.0" width="92" height="28" rx="4" fill="#f8fafc" stroke="#e2e8f0" stroke-width="1"/><rect x="168.0" y="112.0" width="12" height="12" rx="4" fill="#f8fafc" stroke="#64748b" stroke-width="1.5"/><text x="186.0" y="122.0" font-family="monospace" font-size="12" font-weight="700" fill="#64748b">axum</text></g><g><rect x="44.0" y="140.0" width="642.0" height="260.0" rx="8" fill="#ffffff" stroke="#e2e8f0" stroke-width="1"/><rect x="44.0" y="140.0" width="642.0" height="4" rx="8" fill="#ea580c"/></g><text x="66.0" y="172.0" font-family="monospace" font-size="18" font-weight="700" fill="#ea580c">Server CPU Busy %</text><line x1="64.0" y1="348.0" x2="666.0" y2="348.0" stroke="#e2e8f0" stroke-width="1"/><text x="664.0" y="344.0" font-family="system-ui, -apple-system, sans-serif" font-size="10" font-weight="500" fill="#94a3b8">0.0 %</text><line x1="64.0" y1="297.3" x2="666.0" y2="297.3" stroke="#e2e8f0" stroke-width="1"/><text x="664.0" y="293.3" font-family="system-ui, -apple-system, sans-serif" font-size="10" font-weight="500" fill="#94a3b8">9.0 %</text><line x1="64.0" y1="246.7" x2="666.0" y2="246.7" stroke="#e2e8f0" stroke-width="1"/><text x="664.0" y="242.7" font-family="system-ui, -apple-system, sans-serif" font-size="10" font-weight="500" fill="#94a3b8">18.0 %</text><line x1="64.0" y1="196.0" x2="666.0" y2="196.0" stroke="#e2e8f0" stroke-width="1"/><text x="664.0" y="192.0" font-family="system-ui, -apple-system, sans-serif" font-size="10" font-weight="500" fill="#94a3b8">27.0 %</text><polyline fill="none" stroke="#ea580c" stroke-width="2.5" points="64.0,347.4 72.9,347.7 81.7,347.8 90.6,348.0 99.4,348.0 108.3,348.0 117.1,348.0 126.0,348.0 134.8,346.4 143.7,293.8 152.5,218.0 161.4,209.0 170.2,217.0 179.1,225.6 187.9,210.1 196.8,214.3 205.6,212.0 214.5,216.9 223.4,209.6 232.2,207.7 241.1,216.6 249.9,222.6 258.8,213.4 267.6,211.8 276.5,207.5 285.3,210.8 294.2,217.3 303.0,205.9 311.9,216.9 320.7,219.6 329.6,218.1 338.4,213.5 347.3,222.5 356.1,219.3 365.0,216.3 373.9,218.8 382.7,209.3 391.6,212.3 400.4,219.0 409.3,214.9 418.1,214.1 427.0,219.8 435.8,226.0 444.7,222.3 453.5,211.4 462.4,208.8 471.2,224.2 480.1,223.7 488.9,221.1 497.8,220.0 506.6,225.3 515.5,210.7 524.4,220.0 533.2,227.4 542.1,223.7 550.9,223.8 559.8,214.3 568.6,222.9 577.5,205.1 586.3,225.4 595.2,221.4 604.0,222.0 612.9,213.8 621.7,215.1 630.6,215.3 639.4,221.8 648.3,218.4 657.1,209.5 666.0,217.9" stroke-linejoin="round" stroke-linecap="round"/><polyline fill="none" stroke="#64748b" stroke-width="2.5" points="64.0,347.5 72.9,347.5 81.7,347.5 90.6,347.9 99.4,347.9 108.3,347.9 117.1,347.8 126.0,347.8 134.8,346.1 143.7,263.3 152.5,209.9 161.4,196.2 170.2,206.9 179.1,205.9 187.9,213.1 196.8,215.7 205.6,217.8 214.5,209.6 223.4,212.2 232.2,212.1 241.1,214.0 249.9,208.8 258.8,215.5 267.6,214.0 276.5,213.5 285.3,205.6 294.2,198.9 303.0,217.5 311.9,206.8 320.7,206.2 329.6,196.0 338.4,208.5 347.3,209.1 356.1,208.5 365.0,197.0 373.9,204.7 382.7,208.6 391.6,218.8 400.4,209.8 409.3,209.4 418.1,208.1 427.0,216.3 435.8,210.4 444.7,202.1 453.5,222.3 462.4,208.2 471.2,208.6 480.1,210.1 488.9,212.1 497.8,217.7 506.6,216.1 515.5,207.9 524.4,205.1 533.2,213.9 542.1,209.1 550.9,208.8 559.8,210.7 568.6,202.7 577.5,203.4 586.3,210.6 595.2,205.8 604.0,206.7 612.9,213.5 621.7,204.6 630.6,212.3 639.4,211.6 648.3,211.9 657.1,214.0 666.0,198.4" stroke-linejoin="round" stroke-linecap="round"/><text x="64.0" y="366.0" font-family="monospace" font-size="12" font-weight="600" fill="#ea580c">harrow avg 20.1 % peak 25.4</text><text x="64.0" y="382.0" font-family="monospace" font-size="12" font-weight="600" fill="#64748b">axum avg 21.3 % peak 27.0</text><g><rect x="714.0" y="140.0" width="642.0" height="260.0" rx="8" fill="#ffffff" stroke="#e2e8f0" stroke-width="1"/><rect x="714.0" y="140.0" width="642.0" height="4" rx="8" fill="#ea580c"/></g><text x="736.0" y="172.0" font-family="monospace" font-size="18" font-weight="700" fill="#ea580c">Server Net TX</text><line x1="734.0" y1="348.0" x2="1336.0" y2="348.0" stroke="#e2e8f0" stroke-width="1"/><text x="1334.0" y="344.0" font-family="system-ui, -apple-system, sans-serif" font-size="10" font-weight="500" fill="#94a3b8">0.0 MB/s</text><line x1="734.0" y1="297.3" x2="1336.0" y2="297.3" stroke="#e2e8f0" stroke-width="1"/><text x="1334.0" y="293.3" font-family="system-ui, -apple-system, sans-serif" font-size="10" font-weight="500" fill="#94a3b8">405.9 MB/s</text><line x1="734.0" y1="246.7" x2="1336.0" y2="246.7" stroke="#e2e8f0" stroke-width="1"/><text x="1334.0" y="242.7" font-family="system-ui, -apple-system, sans-serif" font-size="10" font-weight="500" fill="#94a3b8">811.7 MB/s</text><line x1="734.0" y1="196.0" x2="1336.0" y2="196.0" stroke="#e2e8f0" stroke-width="1"/><text x="1334.0" y="192.0" font-family="system-ui, -apple-system, sans-serif" font-size="10" font-weight="500" fill="#94a3b8">1217.6 MB/s</text><polyline fill="none" stroke="#ea580c" stroke-width="2.5" points="734.0,348.0 742.9,348.0 751.7,348.0 760.6,348.0 769.4,348.0 778.3,348.0 787.1,348.0 796.0,348.0 804.8,249.2 813.7,200.2 822.5,199.9 831.4,200.5 840.2,199.8 849.1,201.0 857.9,200.8 866.8,199.1 875.6,200.7 884.5,199.3 893.4,198.3 902.2,199.0 911.1,199.4 919.9,200.0 928.8,198.7 937.6,199.1 946.5,199.7 955.3,199.3 964.2,199.2 973.0,199.3 981.9,198.7 990.7,198.6 999.6,199.7 1008.4,198.9 1017.3,199.2 1026.1,199.5 1035.0,199.4 1043.9,199.8 1052.7,200.3 1061.6,199.4 1070.4,199.3 1079.3,198.7 1088.1,199.8 1097.0,200.1 1105.8,199.6 1114.7,199.8 1123.5,199.3 1132.4,200.1 1141.2,200.6 1150.1,199.7 1158.9,198.8 1167.8,199.7 1176.6,199.5 1185.5,199.5 1194.4,199.4 1203.2,198.8 1212.1,198.8 1220.9,198.2 1229.8,199.3 1238.6,200.4 1247.5,199.5 1256.3,199.9 1265.2,199.9 1274.0,199.5 1282.9,198.8 1291.7,199.9 1300.6,198.5 1309.4,198.9 1318.3,200.2 1327.1,198.4 1336.0,199.1" stroke-linejoin="round" stroke-linecap="round"/><polyline fill="none" stroke="#64748b" stroke-width="2.5" points="734.0,348.0 742.9,348.0 751.7,348.0 760.6,348.0 769.4,348.0 778.3,348.0 787.1,348.0 796.0,348.0 804.8,213.9 813.7,198.3 822.5,199.1 831.4,199.7 840.2,199.2 849.1,198.5 857.9,199.3 866.8,200.4 875.6,198.5 884.5,198.6 893.4,198.9 902.2,197.9 911.1,196.0 919.9,198.3 928.8,199.6 937.6,198.3 946.5,197.4 955.3,198.9 964.2,199.0 973.0,198.2 981.9,198.1 990.7,197.6 999.6,196.5 1008.4,196.9 1017.3,198.6 1026.1,198.9 1035.0,198.2 1043.9,198.9 1052.7,197.3 1061.6,198.5 1070.4,198.0 1079.3,197.7 1088.1,197.5 1097.0,197.0 1105.8,198.5 1114.7,198.2 1123.5,198.6 1132.4,198.4 1141.2,198.3 1150.1,197.9 1158.9,198.0 1167.8,198.1 1176.6,198.3 1185.5,197.7 1194.4,198.0 1203.2,198.5 1212.1,197.0 1220.9,197.1 1229.8,196.9 1238.6,197.2 1247.5,196.2 1256.3,197.2 1265.2,197.6 1274.0,197.2 1282.9,197.2 1291.7,197.5 1300.6,197.2 1309.4,196.7 1318.3,199.4 1327.1,198.0 1336.0,197.7" stroke-linejoin="round" stroke-linecap="round"/><text x="734.0" y="366.0" font-family="monospace" font-size="12" font-weight="600" fill="#ea580c">harrow avg 1046.0 MB/s peak 1199.8</text><text x="734.0" y="382.0" font-family="monospace" font-size="12" font-weight="600" fill="#64748b">axum avg 1060.1 MB/s peak 1217.6</text><g><rect x="44.0" y="428.0" width="642.0" height="260.0" rx="8" fill="#ffffff" stroke="#e2e8f0" stroke-width="1"/><rect x="44.0" y="428.0" width="642.0" height="4" rx="8" fill="#ea580c"/></g><text x="66.0" y="460.0" font-family="monospace" font-size="18" font-weight="700" fill="#ea580c">VMstat Runnable (r)</text><line x1="64.0" y1="636.0" x2="666.0" y2="636.0" stroke="#e2e8f0" stroke-width="1"/><text x="664.0" y="632.0" font-family="system-ui, -apple-system, sans-serif" font-size="10" font-weight="500" fill="#94a3b8">0.0 threads</text><line x1="64.0" y1="585.3" x2="666.0" y2="585.3" stroke="#e2e8f0" stroke-width="1"/><text x="664.0" y="581.3" font-family="system-ui, -apple-system, sans-serif" font-size="10" font-weight="500" fill="#94a3b8">9.7 threads</text><line x1="64.0" y1="534.7" x2="666.0" y2="534.7" stroke="#e2e8f0" stroke-width="1"/><text x="664.0" y="530.7" font-family="system-ui, -apple-system, sans-serif" font-size="10" font-weight="500" fill="#94a3b8">19.3 threads</text><line x1="64.0" y1="484.0" x2="666.0" y2="484.0" stroke="#e2e8f0" stroke-width="1"/><text x="664.0" y="480.0" font-family="system-ui, -apple-system, sans-serif" font-size="10" font-weight="500" fill="#94a3b8">29.0 threads</text><polyline fill="none" stroke="#ea580c" stroke-width="2.5" points="64.0,636.0 72.9,636.0 81.7,636.0 90.6,636.0 99.4,636.0 108.3,636.0 117.1,636.0 126.0,636.0 134.8,636.0 143.7,636.0 152.5,636.0 161.4,536.4 170.2,588.8 179.1,630.8 187.9,604.6 196.8,604.6 205.6,599.3 214.5,562.6 223.4,583.6 232.2,588.8 241.1,525.9 249.9,567.9 258.8,620.3 267.6,562.6 276.5,588.8 285.3,557.4 294.2,630.8 303.0,588.8 311.9,567.9 320.7,594.1 329.6,588.8 338.4,536.4 347.3,599.3 356.1,567.9 365.0,552.1 373.9,546.9 382.7,630.8 391.6,615.0 400.4,599.3 409.3,541.7 418.1,573.1 427.0,604.6 435.8,562.6 444.7,562.6 453.5,536.4 462.4,557.4 471.2,567.9 480.1,578.3 488.9,630.8 497.8,588.8 506.6,594.1 515.5,567.9 524.4,583.6 533.2,620.3 542.1,536.4 550.9,567.9 559.8,552.1 568.6,552.1 577.5,583.6 586.3,578.3 595.2,578.3 604.0,573.1 612.9,583.6 621.7,552.1 630.6,546.9 639.4,552.1 648.3,541.7 657.1,599.3 666.0,625.5" stroke-linejoin="round" stroke-linecap="round"/><polyline fill="none" stroke="#64748b" stroke-width="2.5" points="64.0,636.0 72.9,636.0 81.7,630.8 90.6,636.0 99.4,636.0 108.3,636.0 117.1,636.0 126.0,636.0 134.8,636.0 143.7,636.0 152.5,604.6 161.4,557.4 170.2,588.8 179.1,609.8 187.9,578.3 196.8,557.4 205.6,562.6 214.5,531.2 223.4,609.8 232.2,588.8 241.1,546.9 249.9,630.8 258.8,567.9 267.6,594.1 276.5,599.3 285.3,578.3 294.2,583.6 303.0,531.2 311.9,620.3 320.7,630.8 329.6,541.7 338.4,578.3 347.3,583.6 356.1,630.8 365.0,615.0 373.9,567.9 382.7,615.0 391.6,609.8 400.4,583.6 409.3,578.3 418.1,615.0 427.0,573.1 435.8,552.1 444.7,573.1 453.5,557.4 462.4,562.6 471.2,630.8 480.1,620.3 488.9,609.8 497.8,546.9 506.6,583.6 515.5,588.8 524.4,562.6 533.2,630.8 542.1,620.3 550.9,604.6 559.8,583.6 568.6,552.1 577.5,609.8 586.3,484.0 595.2,625.5 604.0,588.8 612.9,578.3 621.7,615.0 630.6,567.9 639.4,573.1 648.3,615.0 657.1,599.3 666.0,588.8" stroke-linejoin="round" stroke-linecap="round"/><text x="64.0" y="654.0" font-family="monospace" font-size="12" font-weight="600" fill="#ea580c">harrow avg 9.3 threads peak 21.0</text><text x="64.0" y="670.0" font-family="monospace" font-size="12" font-weight="600" fill="#64748b">axum avg 8.1 threads peak 29.0</text><g><rect x="714.0" y="428.0" width="642.0" height="260.0" rx="8" fill="#ffffff" stroke="#e2e8f0" stroke-width="1"/><rect x="714.0" y="428.0" width="642.0" height="4" rx="8" fill="#ea580c"/></g><text x="736.0" y="460.0" font-family="monospace" font-size="18" font-weight="700" fill="#ea580c">VMstat Context Switches</text><line x1="734.0" y1="636.0" x2="1336.0" y2="636.0" stroke="#e2e8f0" stroke-width="1"/><text x="1334.0" y="632.0" font-family="system-ui, -apple-system, sans-serif" font-size="10" font-weight="500" fill="#94a3b8">0.0 /s</text><line x1="734.0" y1="585.3" x2="1336.0" y2="585.3" stroke="#e2e8f0" stroke-width="1"/><text x="1334.0" y="581.3" font-family="system-ui, -apple-system, sans-serif" font-size="10" font-weight="500" fill="#94a3b8">95839.7 /s</text><line x1="734.0" y1="534.7" x2="1336.0" y2="534.7" stroke="#e2e8f0" stroke-width="1"/><text x="1334.0" y="530.7" font-family="system-ui, -apple-system, sans-serif" font-size="10" font-weight="500" fill="#94a3b8">191679.3 /s</text><line x1="734.0" y1="484.0" x2="1336.0" y2="484.0" stroke="#e2e8f0" stroke-width="1"/><text x="1334.0" y="480.0" font-family="system-ui, -apple-system, sans-serif" font-size="10" font-weight="500" fill="#94a3b8">287519.0 /s</text><polyline fill="none" stroke="#ea580c" stroke-width="2.5" points="734.0,636.0 742.9,635.8 751.7,635.7 760.6,635.8 769.4,635.9 778.3,635.9 787.1,635.9 796.0,635.9 804.8,635.9 813.7,635.9 822.5,635.8 831.4,530.2 840.2,502.6 849.1,501.9 857.9,502.0 866.8,502.3 875.6,502.8 884.5,502.9 893.4,502.2 902.2,501.5 911.1,501.3 919.9,501.1 928.8,500.5 937.6,501.5 946.5,500.5 955.3,499.7 964.2,501.1 973.0,501.0 981.9,500.4 990.7,499.6 999.6,499.8 1008.4,499.7 1017.3,499.4 1026.1,499.1 1035.0,499.8 1043.9,499.6 1052.7,499.7 1061.6,499.7 1070.4,499.6 1079.3,499.9 1088.1,500.2 1097.0,499.4 1105.8,499.8 1114.7,499.7 1123.5,500.1 1132.4,500.3 1141.2,500.2 1150.1,499.2 1158.9,499.7 1167.8,499.7 1176.6,500.3 1185.5,499.5 1194.4,499.3 1203.2,500.6 1212.1,499.6 1220.9,499.2 1229.8,498.5 1238.6,499.7 1247.5,499.9 1256.3,498.9 1265.2,499.8 1274.0,499.0 1282.9,499.3 1291.7,499.1 1300.6,498.6 1309.4,498.7 1318.3,498.7 1327.1,499.0 1336.0,499.0" stroke-linejoin="round" stroke-linecap="round"/><polyline fill="none" stroke="#64748b" stroke-width="2.5" points="734.0,636.0 742.9,635.8 751.7,635.7 760.6,635.8 769.4,635.8 778.3,635.9 787.1,635.9 796.0,635.9 804.8,635.9 813.7,635.9 822.5,633.1 831.4,488.1 840.2,488.0 849.1,486.0 857.9,486.6 866.8,486.2 875.6,486.5 884.5,484.2 893.4,485.3 902.2,484.6 911.1,485.8 919.9,485.4 928.8,486.5 937.6,486.2 946.5,485.3 955.3,486.0 964.2,486.3 973.0,484.6 981.9,486.0 990.7,485.7 999.6,485.7 1008.4,485.4 1017.3,485.8 1026.1,486.0 1035.0,485.0 1043.9,485.6 1052.7,485.1 1061.6,485.1 1070.4,485.9 1079.3,485.7 1088.1,485.7 1097.0,486.9 1105.8,487.5 1114.7,486.4 1123.5,486.7 1132.4,486.1 1141.2,487.3 1150.1,487.7 1158.9,485.9 1167.8,486.5 1176.6,487.6 1185.5,488.2 1194.4,488.6 1203.2,488.3 1212.1,487.5 1220.9,487.7 1229.8,486.3 1238.6,486.0 1247.5,485.6 1256.3,484.9 1265.2,484.8 1274.0,484.5 1282.9,484.0 1291.7,484.8 1300.6,486.4 1309.4,486.2 1318.3,486.9 1327.1,485.9 1336.0,486.8" stroke-linejoin="round" stroke-linecap="round"/><text x="734.0" y="654.0" font-family="monospace" font-size="12" font-weight="600" fill="#ea580c">harrow avg 215288.4 /s peak 260047.0</text><text x="734.0" y="670.0" font-family="monospace" font-size="12" font-weight="600" fill="#64748b">axum avg 238377.8 /s peak 287519.0</text></svg>