<svg xmlns="http://www.w3.org/2000/svg" width="1400" height="860" viewBox="0 0 1400 860" fill="none">
<rect x="0" y="0" width="1400" height="860" fill="#fafafa"/>
<text x="44.0" y="52.0" font-family="monospace" font-size="18" font-weight="700" fill="#1e293b">server telemetry :: text-c128</text><text x="44.0" y="82.0" font-family="system-ui, -apple-system, sans-serif" font-size="14" font-weight="500" fill="#64748b">Harrow overlays Axum for server-side sar and vmstat signals</text><g><rect x="44.0" y="104.0" width="92" height="28" rx="4" fill="#fff7ed" stroke="#e2e8f0" stroke-width="1"/><rect x="56.0" y="112.0" width="12" height="12" rx="4" fill="#fff7ed" stroke="#ea580c" stroke-width="1.5"/><text x="74.0" y="122.0" font-family="monospace" font-size="12" font-weight="700" fill="#ea580c">harrow</text></g><g><rect x="156.0" y="104.0" width="92" height="28" rx="4" fill="#f8fafc" stroke="#e2e8f0" stroke-width="1"/><rect x="168.0" y="112.0" width="12" height="12" rx="4" fill="#f8fafc" stroke="#64748b" stroke-width="1.5"/><text x="186.0" y="122.0" font-family="monospace" font-size="12" font-weight="700" fill="#64748b">axum</text></g><g><rect x="44.0" y="140.0" width="642.0" height="260.0" rx="8" fill="#ffffff" stroke="#e2e8f0" stroke-width="1"/><rect x="44.0" y="140.0" width="642.0" height="4" rx="8" fill="#ea580c"/></g><text x="66.0" y="172.0" font-family="monospace" font-size="18" font-weight="700" fill="#ea580c">Server CPU Busy %</text><line x1="64.0" y1="348.0" x2="666.0" y2="348.0" stroke="#e2e8f0" stroke-width="1"/><text x="664.0" y="344.0" font-family="system-ui, -apple-system, sans-serif" font-size="10" font-weight="500" fill="#94a3b8">0.0 %</text><line x1="64.0" y1="297.3" x2="666.0" y2="297.3" stroke="#e2e8f0" stroke-width="1"/><text x="664.0" y="293.3" font-family="system-ui, -apple-system, sans-serif" font-size="10" font-weight="500" fill="#94a3b8">7.1 %</text><line x1="64.0" y1="246.7" x2="666.0" y2="246.7" stroke="#e2e8f0" stroke-width="1"/><text x="664.0" y="242.7" font-family="system-ui, -apple-system, sans-serif" font-size="10" font-weight="500" fill="#94a3b8">14.3 %</text><line x1="64.0" y1="196.0" x2="666.0" y2="196.0" stroke="#e2e8f0" stroke-width="1"/><text x="664.0" y="192.0" font-family="system-ui, -apple-system, sans-serif" font-size="10" font-weight="500" fill="#94a3b8">21.4 %</text><polyline fill="none" stroke="#ea580c" stroke-width="2.5" points="64.0,347.6 72.9,347.6 81.7,347.3 90.6,348.0 99.4,348.0 108.3,348.0 117.1,348.0 126.0,347.9 134.8,345.9 143.7,255.4 152.5,217.6 161.4,220.3 170.2,216.8 179.1,225.9 187.9,216.8 196.8,229.1 205.6,215.4 214.5,215.2 223.4,215.1 232.2,223.8 241.1,219.1 249.9,211.1 258.8,229.5 267.6,225.4 276.5,211.0 285.3,214.7 294.2,217.8 303.0,219.5 311.9,213.7 320.7,209.1 329.6,213.3 338.4,207.6 347.3,211.0 356.1,214.1 365.0,216.4 373.9,212.5 382.7,210.4 391.6,219.1 400.4,218.4 409.3,214.7 418.1,219.6 427.0,212.7 435.8,215.9 444.7,215.2 453.5,216.9 462.4,218.7 471.2,222.3 480.1,221.3 488.9,217.3 497.8,216.3 506.6,215.4 515.5,218.6 524.4,221.1 533.2,220.6 542.1,223.0 550.9,214.4 559.8,212.8 568.6,213.2 577.5,210.4 586.3,204.2 595.2,201.9 604.0,204.6 612.9,222.3 621.7,224.7 630.6,220.9 639.4,218.5 648.3,223.3 657.1,218.2 666.0,216.4" stroke-linejoin="round" stroke-linecap="round"/><polyline fill="none" stroke="#64748b" stroke-width="2.5" points="64.0,347.4 72.9,347.4 81.7,347.6 90.6,347.9 99.4,347.9 108.3,347.9 117.1,347.9 126.0,347.9 134.8,347.7 143.7,346.0 152.5,237.2 161.4,203.5 170.2,216.4 179.1,213.1 187.9,205.9 196.8,196.0 205.6,220.3 214.5,210.7 223.4,206.1 232.2,202.9 241.1,224.1 249.9,216.9 258.8,205.3 267.6,207.1 276.5,212.0 285.3,218.4 294.2,208.6 303.0,217.2 311.9,208.5 320.7,207.0 329.6,196.6 338.4,209.9 347.3,207.7 356.1,208.2 365.0,204.2 373.9,209.4 382.7,202.9 391.6,204.9 400.4,210.7 409.3,207.7 418.1,209.3 427.0,206.9 435.8,211.3 444.7,211.5 453.5,204.4 462.4,200.6 471.2,208.5 480.1,215.6 488.9,211.3 497.8,209.8 506.6,219.8 515.5,209.5 524.4,210.6 533.2,208.2 542.1,202.7 550.9,201.0 559.8,206.6 568.6,213.7 577.5,197.9 586.3,209.3 595.2,204.7 604.0,213.9 612.9,207.4 621.7,201.3 630.6,214.6 639.4,210.5 648.3,214.2 657.1,204.7 666.0,214.3" stroke-linejoin="round" stroke-linecap="round"/><text x="64.0" y="366.0" font-family="monospace" font-size="12" font-weight="600" fill="#ea580c">harrow avg 16.0 % peak 20.6</text><text x="64.0" y="382.0" font-family="monospace" font-size="12" font-weight="600" fill="#64748b">axum avg 16.7 % peak 21.4</text><g><rect x="714.0" y="140.0" width="642.0" height="260.0" rx="8" fill="#ffffff" stroke="#e2e8f0" stroke-width="1"/><rect x="714.0" y="140.0" width="642.0" height="4" rx="8" fill="#ea580c"/></g><text x="736.0" y="172.0" font-family="monospace" font-size="18" font-weight="700" fill="#ea580c">Server Net TX</text><line x1="734.0" y1="348.0" x2="1336.0" y2="348.0" stroke="#e2e8f0" stroke-width="1"/><text x="1334.0" y="344.0" font-family="system-ui, -apple-system, sans-serif" font-size="10" font-weight="500" fill="#94a3b8">0.0 MB/s</text><line x1="734.0" y1="297.3" x2="1336.0" y2="297.3" stroke="#e2e8f0" stroke-width="1"/><text x="1334.0" y="293.3" font-family="system-ui, -apple-system, sans-serif" font-size="10" font-weight="500" fill="#94a3b8">60.2 MB/s</text><line x1="734.0" y1="246.7" x2="1336.0" y2="246.7" stroke="#e2e8f0" stroke-width="1"/><text x="1334.0" y="242.7" font-family="system-ui, -apple-system, sans-serif" font-size="10" font-weight="500" fill="#94a3b8">120.3 MB/s</text><line x1="734.0" y1="196.0" x2="1336.0" y2="196.0" stroke="#e2e8f0" stroke-width="1"/><text x="1334.0" y="192.0" font-family="system-ui, -apple-system, sans-serif" font-size="10" font-weight="500" fill="#94a3b8">180.5 MB/s</text><polyline fill="none" stroke="#ea580c" stroke-width="2.5" points="734.0,348.0 742.9,348.0 751.7,348.0 760.6,348.0 769.4,348.0 778.3,348.0 787.1,348.0 796.0,344.0 804.8,203.4 813.7,200.8 822.5,200.1 831.4,200.2 840.2,200.8 849.1,200.7 857.9,200.5 866.8,200.3 875.6,200.2 884.5,200.4 893.4,200.1 902.2,199.5 911.1,200.6 919.9,200.1 928.8,200.3 937.6,199.9 946.5,200.2 955.3,200.2 964.2,200.4 973.0,198.9 981.9,198.7 990.7,199.4 999.6,200.4 1008.4,199.7 1017.3,199.3 1026.1,199.5 1035.0,199.9 1043.9,199.7 1052.7,199.7 1061.6,199.2 1070.4,200.2 1079.3,200.4 1088.1,199.9 1097.0,200.1 1105.8,199.4 1114.7,199.6 1123.5,200.8 1132.4,200.5 1141.2,199.5 1150.1,200.5 1158.9,200.0 1167.8,199.6 1176.6,199.6 1185.5,200.3 1194.4,200.3 1203.2,199.9 1212.1,199.9 1220.9,198.9 1229.8,199.7 1238.6,199.1 1247.5,199.4 1256.3,200.6 1265.2,200.5 1274.0,201.4 1282.9,200.7 1291.7,200.5 1300.6,199.8 1309.4,200.6 1318.3,200.3 1327.1,200.2 1336.0,200.3" stroke-linejoin="round" stroke-linecap="round"/><polyline fill="none" stroke="#64748b" stroke-width="2.5" points="734.0,348.0 742.9,348.0 751.7,348.0 760.6,348.0 769.4,348.0 778.3,348.0 787.1,348.0 796.0,348.0 804.8,338.0 813.7,198.5 822.5,198.1 831.4,198.0 840.2,198.5 849.1,197.8 857.9,198.1 866.8,199.2 875.6,198.3 884.5,198.4 893.4,197.5 902.2,198.6 911.1,198.1 919.9,196.9 928.8,196.6 937.6,198.2 946.5,197.0 955.3,197.6 964.2,198.0 973.0,197.9 981.9,196.8 990.7,196.5 999.6,196.4 1008.4,196.8 1017.3,196.5 1026.1,197.3 1035.0,197.0 1043.9,196.0 1052.7,196.5 1061.6,197.1 1070.4,198.0 1079.3,198.2 1088.1,198.5 1097.0,198.2 1105.8,197.8 1114.7,197.1 1123.5,197.2 1132.4,197.6 1141.2,200.1 1150.1,197.5 1158.9,198.6 1167.8,198.5 1176.6,198.4 1185.5,199.1 1194.4,198.5 1203.2,198.8 1212.1,198.2 1220.9,198.3 1229.8,198.4 1238.6,199.3 1247.5,197.7 1256.3,198.6 1265.2,199.6 1274.0,197.9 1282.9,198.3 1291.7,197.3 1300.6,198.3 1309.4,198.6 1318.3,198.9 1327.1,197.6 1336.0,197.2" stroke-linejoin="round" stroke-linecap="round"/><text x="734.0" y="366.0" font-family="monospace" font-size="12" font-weight="600" fill="#ea580c">harrow avg 155.4 MB/s peak 177.2</text><text x="734.0" y="382.0" font-family="monospace" font-size="12" font-weight="600" fill="#64748b">axum avg 155.2 MB/s peak 180.5</text><g><rect x="44.0" y="428.0" width="642.0" height="260.0" rx="8" fill="#ffffff" stroke="#e2e8f0" stroke-width="1"/><rect x="44.0" y="428.0" width="642.0" height="4" rx="8" fill="#ea580c"/></g><text x="66.0" y="460.0" font-family="monospace" font-size="18" font-weight="700" fill="#ea580c">VMstat Runnable (r)</text><line x1="64.0" y1="636.0" x2="666.0" y2="636.0" stroke="#e2e8f0" stroke-width="1"/><text x="664.0" y="632.0" font-family="system-ui, -apple-system, sans-serif" font-size="10" font-weight="500" fill="#94a3b8">0.0 threads</text><line x1="64.0" y1="585.3" x2="666.0" y2="585.3" stroke="#e2e8f0" stroke-width="1"/><text x="664.0" y="581.3" font-family="system-ui, -apple-system, sans-serif" font-size="10" font-weight="500" fill="#94a3b8">6.3 threads</text><line x1="64.0" y1="534.7" x2="666.0" y2="534.7" stroke="#e2e8f0" stroke-width="1"/><text x="664.0" y="530.7" font-family="system-ui, -apple-system, sans-serif" font-size="10" font-weight="500" fill="#94a3b8">12.7 threads</text><line x1="64.0" y1="484.0" x2="666.0" y2="484.0" stroke="#e2e8f0" stroke-width="1"/><text x="664.0" y="480.0" font-family="system-ui, -apple-system, sans-serif" font-size="10" font-weight="500" fill="#94a3b8">19.0 threads</text><polyline fill="none" stroke="#ea580c" stroke-width="2.5" points="64.0,636.0 72.9,636.0 81.7,636.0 90.6,636.0 99.4,636.0 108.3,636.0 117.1,636.0 126.0,636.0 134.8,636.0 143.7,636.0 152.5,580.0 161.4,604.0 170.2,596.0 179.1,596.0 187.9,580.0 196.8,548.0 205.6,572.0 214.5,580.0 223.4,596.0 232.2,548.0 241.1,588.0 249.9,580.0 258.8,548.0 267.6,532.0 276.5,596.0 285.3,620.0 294.2,516.0 303.0,580.0 311.9,548.0 320.7,564.0 329.6,588.0 338.4,596.0 347.3,572.0 356.1,556.0 365.0,604.0 373.9,612.0 382.7,580.0 391.6,556.0 400.4,516.0 409.3,604.0 418.1,556.0 427.0,540.0 435.8,556.0 444.7,532.0 453.5,540.0 462.4,572.0 471.2,580.0 480.1,548.0 488.9,628.0 497.8,548.0 506.6,532.0 515.5,580.0 524.4,572.0 533.2,620.0 542.1,596.0 550.9,556.0 559.8,540.0 568.6,532.0 577.5,524.0 586.3,572.0 595.2,564.0 604.0,596.0 612.9,612.0 621.7,556.0 630.6,596.0 639.4,572.0 648.3,620.0 657.1,604.0 666.0,588.0" stroke-linejoin="round" stroke-linecap="round"/><polyline fill="none" stroke="#64748b" stroke-width="2.5" points="64.0,636.0 72.9,636.0 81.7,636.0 90.6,636.0 99.4,636.0 108.3,636.0 117.1,636.0 126.0,636.0 134.8,636.0 143.7,636.0 152.5,628.0 161.4,596.0 170.2,628.0 179.1,572.0 187.9,596.0 196.8,596.0 205.6,588.0 214.5,604.0 223.4,572.0 232.2,564.0 241.1,580.0 249.9,596.0 258.8,588.0 267.6,548.0 276.5,572.0 285.3,628.0 294.2,516.0 303.0,572.0 311.9,572.0 320.7,588.0 329.6,556.0 338.4,588.0 347.3,556.0 356.1,628.0 365.0,612.0 373.9,620.0 382.7,572.0 391.6,524.0 400.4,572.0 409.3,556.0 418.1,604.0 427.0,580.0 435.8,484.0 444.7,628.0 453.5,604.0 462.4,596.0 471.2,564.0 480.1,580.0 488.9,572.0 497.8,588.0 506.6,572.0 515.5,588.0 524.4,524.0 533.2,596.0 542.1,540.0 550.9,628.0 559.8,612.0 568.6,572.0 577.5,556.0 586.3,548.0 595.2,564.0 604.0,604.0 612.9,572.0 621.7,588.0 630.6,564.0 639.4,548.0 648.3,548.0 657.1,620.0 666.0,572.0" stroke-linejoin="round" stroke-linecap="round"/><text x="64.0" y="654.0" font-family="monospace" font-size="12" font-weight="600" fill="#ea580c">harrow avg 6.8 threads peak 15.0</text><text x="64.0" y="670.0" font-family="monospace" font-size="12" font-weight="600" fill="#64748b">axum avg 6.0 threads peak 19.0</text><g><rect x="714.0" y="428.0" width="642.0" height="260.0" rx="8" fill="#ffffff" stroke="#e2e8f0" stroke-width="1"/><rect x="714.0" y="428.0" width="642.0" height="4" rx="8" fill="#ea580c"/></g><text x="736.0" y="460.0" font-family="monospace" font-size="18" font-weight="700" fill="#ea580c">VMstat Context Switches</text><line x1="734.0" y1="636.0" x2="1336.0" y2="636.0" stroke="#e2e8f0" stroke-width="1"/><text x="1334.0" y="632.0" font-family="system-ui, -apple-system, sans-serif" font-size="10" font-weight="500" fill="#94a3b8">0.0 /s</text><line x1="734.0" y1="585.3" x2="1336.0" y2="585.3" stroke="#e2e8f0" stroke-width="1"/><text x="1334.0" y="581.3" font-family="system-ui, -apple-system, sans-serif" font-size="10" font-weight="500" fill="#94a3b8">87180.0 /s</text><line x1="734.0" y1="534.7" x2="1336.0" y2="534.7" stroke="#e2e8f0" stroke-width="1"/><text x="1334.0" y="530.7" font-family="system-ui, -apple-system, sans-serif" font-size="10" font-weight="500" fill="#94a3b8">174360.0 /s</text><line x1="734.0" y1="484.0" x2="1336.0" y2="484.0" stroke="#e2e8f0" stroke-width="1"/><text x="1334.0" y="480.0" font-family="system-ui, -apple-system, sans-serif" font-size="10" font-weight="500" fill="#94a3b8">261540.0 /s</text><polyline fill="none" stroke="#ea580c" stroke-width="2.5" points="734.0,636.0 742.9,635.8 751.7,635.7 760.6,635.8 769.4,635.8 778.3,635.9 787.1,635.9 796.0,635.9 804.8,635.9 813.7,635.9 822.5,619.6 831.4,500.0 840.2,499.0 849.1,498.9 857.9,499.3 866.8,499.0 875.6,500.0 884.5,500.2 893.4,499.5 902.2,499.1 911.1,499.3 919.9,498.1 928.8,497.8 937.6,498.0 946.5,499.6 955.3,499.4 964.2,499.8 973.0,498.3 981.9,499.3 990.7,498.8 999.6,499.2 1008.4,498.6 1017.3,499.0 1026.1,499.1 1035.0,498.7 1043.9,498.9 1052.7,499.1 1061.6,499.3 1070.4,497.8 1079.3,497.2 1088.1,497.7 1097.0,499.4 1105.8,499.4 1114.7,498.0 1123.5,499.5 1132.4,498.7 1141.2,498.8 1150.1,498.5 1158.9,498.5 1167.8,498.9 1176.6,498.4 1185.5,498.1 1194.4,498.9 1203.2,497.6 1212.1,498.7 1220.9,497.8 1229.8,497.7 1238.6,496.8 1247.5,498.1 1256.3,497.8 1265.2,497.5 1274.0,496.7 1282.9,497.7 1291.7,496.6 1300.6,497.0 1309.4,497.1 1318.3,495.6 1327.1,495.6 1336.0,497.5" stroke-linejoin="round" stroke-linecap="round"/><polyline fill="none" stroke="#64748b" stroke-width="2.5" points="734.0,636.0 742.9,635.7 751.7,635.7 760.6,635.8 769.4,635.9 778.3,635.9 787.1,635.9 796.0,635.9 804.8,635.9 813.7,635.9 822.5,635.8 831.4,608.6 840.2,491.8 849.1,490.2 857.9,491.5 866.8,491.1 875.6,491.7 884.5,491.7 893.4,490.3 902.2,490.1 911.1,488.8 919.9,487.7 928.8,489.9 937.6,490.0 946.5,490.8 955.3,487.2 964.2,487.1 973.0,487.8 981.9,488.5 990.7,486.4 999.6,485.1 1008.4,485.8 1017.3,485.8 1026.1,484.9 1035.0,488.0 1043.9,486.4 1052.7,484.0 1061.6,485.9 1070.4,486.1 1079.3,486.6 1088.1,487.5 1097.0,485.5 1105.8,485.9 1114.7,486.1 1123.5,487.0 1132.4,487.0 1141.2,487.2 1150.1,486.5 1158.9,487.3 1167.8,486.4 1176.6,487.2 1185.5,488.5 1194.4,488.9 1203.2,490.3 1212.1,489.4 1220.9,489.8 1229.8,489.7 1238.6,489.4 1247.5,489.1 1256.3,487.8 1265.2,488.5 1274.0,488.0 1282.9,489.3 1291.7,489.8 1300.6,488.1 1309.4,488.6 1318.3,489.3 1327.1,487.8 1336.0,488.3" stroke-linejoin="round" stroke-linecap="round"/><text x="734.0" y="654.0" font-family="monospace" font-size="12" font-weight="600" fill="#ea580c">harrow avg 199421.7 /s peak 241651.0</text><text x="734.0" y="670.0" font-family="monospace" font-size="12" font-weight="600" fill="#64748b">axum avg 210860.8 /s peak 261540.0</text></svg>