<svg xmlns="http://www.w3.org/2000/svg" width="1400" height="860" viewBox="0 0 1400 860" fill="none">
<rect x="0" y="0" width="1400" height="860" fill="#fafafa"/>
<text x="44.0" y="52.0" font-family="monospace" font-size="18" font-weight="700" fill="#1e293b">server telemetry :: compression-json-10kb-c128</text><text x="44.0" y="82.0" font-family="system-ui, -apple-system, sans-serif" font-size="14" font-weight="500" fill="#64748b">axum overlays harrow for server-side sar and vmstat signals</text><g><rect x="44.0" y="104.0" width="92" height="28" rx="4" fill="#fff7ed" stroke="#e2e8f0" stroke-width="1"/><rect x="56.0" y="112.0" width="12" height="12" rx="4" fill="#fff7ed" stroke="#ea580c" stroke-width="1.5"/><text x="74.0" y="122.0" font-family="monospace" font-size="12" font-weight="700" fill="#ea580c">axum</text></g><g><rect x="156.0" y="104.0" width="92" height="28" rx="4" fill="#f8fafc" stroke="#e2e8f0" stroke-width="1"/><rect x="168.0" y="112.0" width="12" height="12" rx="4" fill="#f8fafc" stroke="#64748b" stroke-width="1.5"/><text x="186.0" y="122.0" font-family="monospace" font-size="12" font-weight="700" fill="#64748b">harrow</text></g><g><rect x="44.0" y="140.0" width="642.0" height="260.0" rx="8" fill="#ffffff" stroke="#e2e8f0" stroke-width="1"/><rect x="44.0" y="140.0" width="642.0" height="4" rx="8" fill="#ea580c"/></g><text x="66.0" y="172.0" font-family="monospace" font-size="18" font-weight="700" fill="#ea580c">Server CPU Busy %</text><line x1="64.0" y1="348.0" x2="666.0" y2="348.0" stroke="#e2e8f0" stroke-width="1"/><text x="664.0" y="344.0" font-family="system-ui, -apple-system, sans-serif" font-size="10" font-weight="500" fill="#94a3b8">0.0 %</text><line x1="64.0" y1="297.3" x2="666.0" y2="297.3" stroke="#e2e8f0" stroke-width="1"/><text x="664.0" y="293.3" font-family="system-ui, -apple-system, sans-serif" font-size="10" font-weight="500" fill="#94a3b8">32.9 %</text><line x1="64.0" y1="246.7" x2="666.0" y2="246.7" stroke="#e2e8f0" stroke-width="1"/><text x="664.0" y="242.7" font-family="system-ui, -apple-system, sans-serif" font-size="10" font-weight="500" fill="#94a3b8">65.8 %</text><line x1="64.0" y1="196.0" x2="666.0" y2="196.0" stroke="#e2e8f0" stroke-width="1"/><text x="664.0" y="192.0" font-family="system-ui, -apple-system, sans-serif" font-size="10" font-weight="500" fill="#94a3b8">98.8 %</text><polyline fill="none" stroke="#ea580c" stroke-width="2.5" points="64.0,347.9 88.1,347.8 112.2,347.9 136.2,348.0 160.3,348.0 184.4,347.9 208.5,348.0 232.6,348.0 256.6,347.9 280.7,286.2 304.8,202.0 328.9,199.0 353.0,197.6 377.0,199.2 401.1,196.2 425.2,201.0 449.3,198.9 473.4,198.9 497.4,196.5 521.5,196.0 545.6,196.4 569.7,198.0 593.8,202.3 617.8,197.3 641.9,206.8 666.0,196.6" stroke-linejoin="round" stroke-linecap="round"/><polyline fill="none" stroke="#64748b" stroke-width="2.5" points="64.0,347.8 88.1,348.0 112.2,347.9 136.2,348.0 160.3,348.0 184.4,348.0 208.5,348.0 232.6,348.0 256.6,347.9 280.7,273.7 304.8,219.8 328.9,221.9 353.0,218.3 377.0,220.6 401.1,221.2 425.2,219.7 449.3,219.8 473.4,219.5 497.4,219.6 521.5,218.7 545.6,218.8 569.7,214.6 593.8,220.2 617.8,219.0 641.9,219.5 666.0,218.9" stroke-linejoin="round" stroke-linecap="round"/><text x="64.0" y="366.0" font-family="monospace" font-size="12" font-weight="600" fill="#ea580c">axum avg 61.2 % peak 98.8</text><text x="64.0" y="382.0" font-family="monospace" font-size="12" font-weight="600" fill="#64748b">harrow avg 53.3 % peak 86.7</text><g><rect x="714.0" y="140.0" width="642.0" height="260.0" rx="8" fill="#ffffff" stroke="#e2e8f0" stroke-width="1"/><rect x="714.0" y="140.0" width="642.0" height="4" rx="8" fill="#ea580c"/></g><text x="736.0" y="172.0" font-family="monospace" font-size="18" font-weight="700" fill="#ea580c">Server Net TX</text><line x1="734.0" y1="348.0" x2="1336.0" y2="348.0" stroke="#e2e8f0" stroke-width="1"/><text x="1334.0" y="344.0" font-family="system-ui, -apple-system, sans-serif" font-size="10" font-weight="500" fill="#94a3b8">0.0 MB/s</text><line x1="734.0" y1="297.3" x2="1336.0" y2="297.3" stroke="#e2e8f0" stroke-width="1"/><text x="1334.0" y="293.3" font-family="system-ui, -apple-system, sans-serif" font-size="10" font-weight="500" fill="#94a3b8">424.9 MB/s</text><line x1="734.0" y1="246.7" x2="1336.0" y2="246.7" stroke="#e2e8f0" stroke-width="1"/><text x="1334.0" y="242.7" font-family="system-ui, -apple-system, sans-serif" font-size="10" font-weight="500" fill="#94a3b8">849.8 MB/s</text><line x1="734.0" y1="196.0" x2="1336.0" y2="196.0" stroke="#e2e8f0" stroke-width="1"/><text x="1334.0" y="192.0" font-family="system-ui, -apple-system, sans-serif" font-size="10" font-weight="500" fill="#94a3b8">1274.7 MB/s</text><polyline fill="none" stroke="#ea580c" stroke-width="2.5" points="734.0,348.0 758.1,348.0 782.2,348.0 806.2,348.0 830.3,348.0 854.4,348.0 878.5,348.0 902.6,348.0 926.6,297.1 950.7,278.7 974.8,277.6 998.9,276.6 1023.0,277.5 1047.0,276.0 1071.1,278.3 1095.2,277.3 1119.3,277.2 1143.4,276.2 1167.4,275.9 1191.5,276.1 1215.6,276.9 1239.7,278.9 1263.8,278.3 1287.8,279.1 1311.9,276.2 1336.0,276.0" stroke-linejoin="round" stroke-linecap="round"/><polyline fill="none" stroke="#64748b" stroke-width="2.5" points="734.0,348.0 758.1,348.0 782.2,348.0 806.2,348.0 830.3,348.0 854.4,348.0 878.5,348.0 902.6,348.0 926.6,217.2 950.7,199.3 974.8,200.2 998.9,197.9 1023.0,202.4 1047.0,200.0 1071.1,198.8 1095.2,199.9 1119.3,199.9 1143.4,198.6 1167.4,199.8 1191.5,196.0 1215.6,197.0 1239.7,198.2 1263.8,199.6 1287.8,198.7 1311.9,198.7 1336.0,198.0" stroke-linejoin="round" stroke-linecap="round"/><text x="734.0" y="366.0" font-family="monospace" font-size="12" font-weight="600" fill="#ea580c">axum avg 404.5 MB/s peak 604.5</text><text x="734.0" y="382.0" font-family="monospace" font-size="12" font-weight="600" fill="#64748b">harrow avg 859.1 MB/s peak 1274.7</text><g><rect x="44.0" y="428.0" width="642.0" height="260.0" rx="8" fill="#ffffff" stroke="#e2e8f0" stroke-width="1"/><rect x="44.0" y="428.0" width="642.0" height="4" rx="8" fill="#ea580c"/></g><text x="66.0" y="460.0" font-family="monospace" font-size="18" font-weight="700" fill="#ea580c">VMstat Runnable (r)</text><line x1="64.0" y1="636.0" x2="666.0" y2="636.0" stroke="#e2e8f0" stroke-width="1"/><text x="664.0" y="632.0" font-family="system-ui, -apple-system, sans-serif" font-size="10" font-weight="500" fill="#94a3b8">0.0 threads</text><line x1="64.0" y1="585.3" x2="666.0" y2="585.3" stroke="#e2e8f0" stroke-width="1"/><text x="664.0" y="581.3" font-family="system-ui, -apple-system, sans-serif" font-size="10" font-weight="500" fill="#94a3b8">16.0 threads</text><line x1="64.0" y1="534.7" x2="666.0" y2="534.7" stroke="#e2e8f0" stroke-width="1"/><text x="664.0" y="530.7" font-family="system-ui, -apple-system, sans-serif" font-size="10" font-weight="500" fill="#94a3b8">32.0 threads</text><line x1="64.0" y1="484.0" x2="666.0" y2="484.0" stroke="#e2e8f0" stroke-width="1"/><text x="664.0" y="480.0" font-family="system-ui, -apple-system, sans-serif" font-size="10" font-weight="500" fill="#94a3b8">48.0 threads</text><polyline fill="none" stroke="#ea580c" stroke-width="2.5" points="64.0,636.0 88.1,636.0 112.2,636.0 136.2,636.0 160.3,636.0 184.4,636.0 208.5,636.0 232.6,636.0 256.6,636.0 280.7,636.0 304.8,636.0 328.9,484.0 353.0,490.3 377.0,487.2 401.1,484.0 425.2,496.7 449.3,487.2 473.4,493.5 497.4,487.2 521.5,484.0 545.6,487.2 569.7,484.0 593.8,487.2 617.8,484.0 641.9,484.0 666.0,484.0" stroke-linejoin="round" stroke-linecap="round"/><polyline fill="none" stroke="#64748b" stroke-width="2.5" points="64.0,636.0 88.1,636.0 112.2,636.0 136.2,636.0 160.3,636.0 184.4,636.0 208.5,636.0 232.6,636.0 256.6,636.0 280.7,636.0 304.8,636.0 328.9,515.7 353.0,550.5 377.0,522.0 401.1,518.8 425.2,534.7 449.3,575.8 473.4,506.2 497.4,617.0 521.5,499.8 545.6,506.2 569.7,528.3 593.8,490.3 617.8,493.5 641.9,629.7 666.0,525.2" stroke-linejoin="round" stroke-linecap="round"/><text x="64.0" y="654.0" font-family="monospace" font-size="12" font-weight="600" fill="#ea580c">axum avg 27.2 threads peak 48.0</text><text x="64.0" y="670.0" font-family="monospace" font-size="12" font-weight="600" fill="#64748b">harrow avg 18.5 threads peak 46.0</text><g><rect x="714.0" y="428.0" width="642.0" height="260.0" rx="8" fill="#ffffff" stroke="#e2e8f0" stroke-width="1"/><rect x="714.0" y="428.0" width="642.0" height="4" rx="8" fill="#ea580c"/></g><text x="736.0" y="460.0" font-family="monospace" font-size="18" font-weight="700" fill="#ea580c">VMstat Context Switches</text><line x1="734.0" y1="636.0" x2="1336.0" y2="636.0" stroke="#e2e8f0" stroke-width="1"/><text x="1334.0" y="632.0" font-family="system-ui, -apple-system, sans-serif" font-size="10" font-weight="500" fill="#94a3b8">0.0 /s</text><line x1="734.0" y1="585.3" x2="1336.0" y2="585.3" stroke="#e2e8f0" stroke-width="1"/><text x="1334.0" y="581.3" font-family="system-ui, -apple-system, sans-serif" font-size="10" font-weight="500" fill="#94a3b8">60547.3 /s</text><line x1="734.0" y1="534.7" x2="1336.0" y2="534.7" stroke="#e2e8f0" stroke-width="1"/><text x="1334.0" y="530.7" font-family="system-ui, -apple-system, sans-serif" font-size="10" font-weight="500" fill="#94a3b8">121094.7 /s</text><line x1="734.0" y1="484.0" x2="1336.0" y2="484.0" stroke="#e2e8f0" stroke-width="1"/><text x="1334.0" y="480.0" font-family="system-ui, -apple-system, sans-serif" font-size="10" font-weight="500" fill="#94a3b8">181642.0 /s</text><polyline fill="none" stroke="#ea580c" stroke-width="2.5" points="734.0,636.0 758.1,635.5 782.2,635.7 806.2,635.7 830.3,635.8 854.4,635.7 878.5,635.9 902.6,635.8 926.6,635.9 950.7,635.8 974.8,635.8 998.9,601.1 1023.0,606.4 1047.0,605.9 1071.1,604.6 1095.2,604.8 1119.3,604.7 1143.4,605.2 1167.4,604.8 1191.5,604.7 1215.6,603.8 1239.7,603.4 1263.8,604.1 1287.8,604.1 1311.9,605.6 1336.0,605.6" stroke-linejoin="round" stroke-linecap="round"/><polyline fill="none" stroke="#64748b" stroke-width="2.5" points="734.0,636.0 758.1,635.6 782.2,635.7 806.2,635.7 830.3,635.7 854.4,635.8 878.5,635.9 902.6,635.9 926.6,635.8 950.7,635.9 974.8,635.8 998.9,493.1 1023.0,492.2 1047.0,492.9 1071.1,489.0 1095.2,490.6 1119.3,492.6 1143.4,486.4 1167.4,490.0 1191.5,490.1 1215.6,487.5 1239.7,488.9 1263.8,484.0 1287.8,487.1 1311.9,487.9 1336.0,489.8" stroke-linejoin="round" stroke-linecap="round"/><text x="734.0" y="654.0" font-family="monospace" font-size="12" font-weight="600" fill="#ea580c">axum avg 21771.8 /s peak 41659.0</text><text x="734.0" y="670.0" font-family="monospace" font-size="12" font-weight="600" fill="#64748b">harrow avg 101135.4 /s peak 181642.0</text></svg>