<svg xmlns="http://www.w3.org/2000/svg" width="1400" height="860" viewBox="0 0 1400 860" fill="none">
<rect x="0" y="0" width="1400" height="860" fill="#fafafa"/>
<text x="44.0" y="52.0" font-family="monospace" font-size="18" font-weight="700" fill="#1e293b">server telemetry :: text-c128</text><text x="44.0" y="82.0" font-family="system-ui, -apple-system, sans-serif" font-size="14" font-weight="500" fill="#64748b">axum overlays harrow for server-side sar and vmstat signals</text><g><rect x="44.0" y="104.0" width="92" height="28" rx="4" fill="#fff7ed" stroke="#e2e8f0" stroke-width="1"/><rect x="56.0" y="112.0" width="12" height="12" rx="4" fill="#fff7ed" stroke="#ea580c" stroke-width="1.5"/><text x="74.0" y="122.0" font-family="monospace" font-size="12" font-weight="700" fill="#ea580c">axum</text></g><g><rect x="156.0" y="104.0" width="92" height="28" rx="4" fill="#f8fafc" stroke="#e2e8f0" stroke-width="1"/><rect x="168.0" y="112.0" width="12" height="12" rx="4" fill="#f8fafc" stroke="#64748b" stroke-width="1.5"/><text x="186.0" y="122.0" font-family="monospace" font-size="12" font-weight="700" fill="#64748b">harrow</text></g><g><rect x="44.0" y="140.0" width="642.0" height="260.0" rx="8" fill="#ffffff" stroke="#e2e8f0" stroke-width="1"/><rect x="44.0" y="140.0" width="642.0" height="4" rx="8" fill="#ea580c"/></g><text x="66.0" y="172.0" font-family="monospace" font-size="18" font-weight="700" fill="#ea580c">Server CPU Busy %</text><line x1="64.0" y1="348.0" x2="666.0" y2="348.0" stroke="#e2e8f0" stroke-width="1"/><text x="664.0" y="344.0" font-family="system-ui, -apple-system, sans-serif" font-size="10" font-weight="500" fill="#94a3b8">0.0 %</text><line x1="64.0" y1="297.3" x2="666.0" y2="297.3" stroke="#e2e8f0" stroke-width="1"/><text x="664.0" y="293.3" font-family="system-ui, -apple-system, sans-serif" font-size="10" font-weight="500" fill="#94a3b8">7.0 %</text><line x1="64.0" y1="246.7" x2="666.0" y2="246.7" stroke="#e2e8f0" stroke-width="1"/><text x="664.0" y="242.7" font-family="system-ui, -apple-system, sans-serif" font-size="10" font-weight="500" fill="#94a3b8">14.1 %</text><line x1="64.0" y1="196.0" x2="666.0" y2="196.0" stroke="#e2e8f0" stroke-width="1"/><text x="664.0" y="192.0" font-family="system-ui, -apple-system, sans-serif" font-size="10" font-weight="500" fill="#94a3b8">21.1 %</text><polyline fill="none" stroke="#ea580c" stroke-width="2.5" points="64.0,347.6 88.1,347.6 112.2,347.7 136.2,348.0 160.3,348.0 184.4,348.0 208.5,348.0 232.6,348.0 256.6,347.4 280.7,284.1 304.8,212.0 328.9,204.2 353.0,215.4 377.0,210.9 401.1,199.0 425.2,203.3 449.3,196.0 473.4,213.6 497.4,212.0 521.5,217.1 545.6,204.3 569.7,199.9 593.8,203.1 617.8,205.8 641.9,207.4 666.0,196.9" stroke-linejoin="round" stroke-linecap="round"/><polyline fill="none" stroke="#64748b" stroke-width="2.5" points="64.0,347.6 88.1,347.4 112.2,347.6 136.2,348.0 160.3,348.0 184.4,348.0 208.5,348.0 232.6,348.0 256.6,347.4 280.7,299.9 304.8,223.1 328.9,220.5 353.0,208.5 377.0,218.0 401.1,211.3 425.2,199.8 449.3,214.1 473.4,214.1 497.4,205.1 521.5,213.8 545.6,212.6 569.7,208.6 593.8,207.0 617.8,213.0 641.9,225.1 666.0,210.0" stroke-linejoin="round" stroke-linecap="round"/><text x="64.0" y="366.0" font-family="monospace" font-size="12" font-weight="600" fill="#ea580c">axum avg 12.5 % peak 21.1</text><text x="64.0" y="382.0" font-family="monospace" font-size="12" font-weight="600" fill="#64748b">harrow avg 11.8 % peak 20.6</text><g><rect x="714.0" y="140.0" width="642.0" height="260.0" rx="8" fill="#ffffff" stroke="#e2e8f0" stroke-width="1"/><rect x="714.0" y="140.0" width="642.0" height="4" rx="8" fill="#ea580c"/></g><text x="736.0" y="172.0" font-family="monospace" font-size="18" font-weight="700" fill="#ea580c">Server Net TX</text><line x1="734.0" y1="348.0" x2="1336.0" y2="348.0" stroke="#e2e8f0" stroke-width="1"/><text x="1334.0" y="344.0" font-family="system-ui, -apple-system, sans-serif" font-size="10" font-weight="500" fill="#94a3b8">0.0 MB/s</text><line x1="734.0" y1="297.3" x2="1336.0" y2="297.3" stroke="#e2e8f0" stroke-width="1"/><text x="1334.0" y="293.3" font-family="system-ui, -apple-system, sans-serif" font-size="10" font-weight="500" fill="#94a3b8">62.7 MB/s</text><line x1="734.0" y1="246.7" x2="1336.0" y2="246.7" stroke="#e2e8f0" stroke-width="1"/><text x="1334.0" y="242.7" font-family="system-ui, -apple-system, sans-serif" font-size="10" font-weight="500" fill="#94a3b8">125.5 MB/s</text><line x1="734.0" y1="196.0" x2="1336.0" y2="196.0" stroke="#e2e8f0" stroke-width="1"/><text x="1334.0" y="192.0" font-family="system-ui, -apple-system, sans-serif" font-size="10" font-weight="500" fill="#94a3b8">188.2 MB/s</text><polyline fill="none" stroke="#ea580c" stroke-width="2.5" points="734.0,348.0 758.1,348.0 782.2,348.0 806.2,348.0 830.3,348.0 854.4,348.0 878.5,348.0 902.6,348.0 926.6,223.0 950.7,198.6 974.8,198.7 998.9,198.1 1023.0,196.4 1047.0,197.5 1071.1,198.3 1095.2,198.6 1119.3,196.9 1143.4,196.0 1167.4,197.2 1191.5,199.1 1215.6,197.7 1239.7,199.4 1263.8,198.3 1287.8,196.6 1311.9,197.3 1336.0,197.4" stroke-linejoin="round" stroke-linecap="round"/><polyline fill="none" stroke="#64748b" stroke-width="2.5" points="734.0,348.0 758.1,348.0 782.2,348.0 806.2,348.0 830.3,348.0 854.4,348.0 878.5,348.0 902.6,348.0 926.6,241.9 950.7,202.5 974.8,201.4 998.9,201.3 1023.0,200.1 1047.0,201.0 1071.1,201.2 1095.2,200.5 1119.3,200.9 1143.4,201.6 1167.4,201.2 1191.5,202.1 1215.6,200.9 1239.7,201.5 1263.8,202.5 1287.8,200.9 1311.9,201.1 1336.0,201.3" stroke-linejoin="round" stroke-linecap="round"/><text x="734.0" y="366.0" font-family="monospace" font-size="12" font-weight="600" fill="#ea580c">axum avg 127.6 MB/s peak 188.2</text><text x="734.0" y="382.0" font-family="monospace" font-size="12" font-weight="600" fill="#64748b">harrow avg 123.8 MB/s peak 183.1</text><g><rect x="44.0" y="428.0" width="642.0" height="260.0" rx="8" fill="#ffffff" stroke="#e2e8f0" stroke-width="1"/><rect x="44.0" y="428.0" width="642.0" height="4" rx="8" fill="#ea580c"/></g><text x="66.0" y="460.0" font-family="monospace" font-size="18" font-weight="700" fill="#ea580c">VMstat Runnable (r)</text><line x1="64.0" y1="636.0" x2="666.0" y2="636.0" stroke="#e2e8f0" stroke-width="1"/><text x="664.0" y="632.0" font-family="system-ui, -apple-system, sans-serif" font-size="10" font-weight="500" fill="#94a3b8">0.0 threads</text><line x1="64.0" y1="585.3" x2="666.0" y2="585.3" stroke="#e2e8f0" stroke-width="1"/><text x="664.0" y="581.3" font-family="system-ui, -apple-system, sans-serif" font-size="10" font-weight="500" fill="#94a3b8">5.7 threads</text><line x1="64.0" y1="534.7" x2="666.0" y2="534.7" stroke="#e2e8f0" stroke-width="1"/><text x="664.0" y="530.7" font-family="system-ui, -apple-system, sans-serif" font-size="10" font-weight="500" fill="#94a3b8">11.3 threads</text><line x1="64.0" y1="484.0" x2="666.0" y2="484.0" stroke="#e2e8f0" stroke-width="1"/><text x="664.0" y="480.0" font-family="system-ui, -apple-system, sans-serif" font-size="10" font-weight="500" fill="#94a3b8">17.0 threads</text><polyline fill="none" stroke="#ea580c" stroke-width="2.5" points="64.0,636.0 88.1,636.0 112.2,636.0 136.2,636.0 160.3,636.0 184.4,636.0 208.5,636.0 232.6,636.0 256.6,636.0 280.7,636.0 304.8,636.0 328.9,546.6 353.0,537.6 377.0,510.8 401.1,582.4 425.2,618.1 449.3,600.2 473.4,573.4 497.4,546.6 521.5,546.6 545.6,618.1 569.7,618.1 593.8,609.2 617.8,600.2 641.9,484.0 666.0,600.2" stroke-linejoin="round" stroke-linecap="round"/><polyline fill="none" stroke="#64748b" stroke-width="2.5" points="64.0,636.0 88.1,636.0 112.2,636.0 136.2,636.0 160.3,636.0 184.4,636.0 208.5,636.0 232.6,636.0 256.6,636.0 280.7,636.0 304.8,636.0 328.9,591.3 353.0,501.9 377.0,501.9 401.1,627.1 425.2,582.4 449.3,591.3 473.4,564.5 497.4,537.6 521.5,591.3 545.6,564.5 569.7,591.3 593.8,546.6 617.8,537.6 641.9,618.1 666.0,627.1" stroke-linejoin="round" stroke-linecap="round"/><text x="64.0" y="654.0" font-family="monospace" font-size="12" font-weight="600" fill="#ea580c">axum avg 4.1 threads peak 17.0</text><text x="64.0" y="670.0" font-family="monospace" font-size="12" font-weight="600" fill="#64748b">harrow avg 4.2 threads peak 15.0</text><g><rect x="714.0" y="428.0" width="642.0" height="260.0" rx="8" fill="#ffffff" stroke="#e2e8f0" stroke-width="1"/><rect x="714.0" y="428.0" width="642.0" height="4" rx="8" fill="#ea580c"/></g><text x="736.0" y="460.0" font-family="monospace" font-size="18" font-weight="700" fill="#ea580c">VMstat Context Switches</text><line x1="734.0" y1="636.0" x2="1336.0" y2="636.0" stroke="#e2e8f0" stroke-width="1"/><text x="1334.0" y="632.0" font-family="system-ui, -apple-system, sans-serif" font-size="10" font-weight="500" fill="#94a3b8">0.0 /s</text><line x1="734.0" y1="585.3" x2="1336.0" y2="585.3" stroke="#e2e8f0" stroke-width="1"/><text x="1334.0" y="581.3" font-family="system-ui, -apple-system, sans-serif" font-size="10" font-weight="500" fill="#94a3b8">90026.7 /s</text><line x1="734.0" y1="534.7" x2="1336.0" y2="534.7" stroke="#e2e8f0" stroke-width="1"/><text x="1334.0" y="530.7" font-family="system-ui, -apple-system, sans-serif" font-size="10" font-weight="500" fill="#94a3b8">180053.3 /s</text><line x1="734.0" y1="484.0" x2="1336.0" y2="484.0" stroke="#e2e8f0" stroke-width="1"/><text x="1334.0" y="480.0" font-family="system-ui, -apple-system, sans-serif" font-size="10" font-weight="500" fill="#94a3b8">270080.0 /s</text><polyline fill="none" stroke="#ea580c" stroke-width="2.5" points="734.0,636.0 758.1,635.8 782.2,635.8 806.2,635.7 830.3,635.8 854.4,635.9 878.5,635.9 902.6,635.9 926.6,635.9 950.7,635.9 974.8,635.9 998.9,511.0 1023.0,484.6 1047.0,484.0 1071.1,484.9 1095.2,484.7 1119.3,484.6 1143.4,485.9 1167.4,485.4 1191.5,486.5 1215.6,486.7 1239.7,487.1 1263.8,485.2 1287.8,485.4 1311.9,486.0 1336.0,485.4" stroke-linejoin="round" stroke-linecap="round"/><polyline fill="none" stroke="#64748b" stroke-width="2.5" points="734.0,636.0 758.1,635.7 782.2,635.8 806.2,635.7 830.3,635.8 854.4,635.9 878.5,635.9 902.6,635.9 926.6,635.9 950.7,635.9 974.8,635.8 998.9,533.4 1023.0,499.3 1047.0,499.0 1071.1,497.2 1095.2,496.0 1119.3,494.6 1143.4,495.2 1167.4,495.3 1191.5,494.4 1215.6,494.5 1239.7,495.0 1263.8,495.2 1287.8,495.2 1311.9,495.1 1336.0,495.8" stroke-linejoin="round" stroke-linecap="round"/><text x="734.0" y="654.0" font-family="monospace" font-size="12" font-weight="600" fill="#ea580c">axum avg 152672.3 /s peak 270080.0</text><text x="734.0" y="670.0" font-family="monospace" font-size="12" font-weight="600" fill="#64748b">harrow avg 141225.7 /s peak 251581.0</text></svg>