<svg xmlns="http://www.w3.org/2000/svg" width="1400" height="860" viewBox="0 0 1400 860" fill="none">
<rect x="0" y="0" width="1400" height="860" fill="#fafafa"/>
<text x="44.0" y="52.0" font-family="monospace" font-size="18" font-weight="700" fill="#1e293b">server telemetry :: json-1kb-c128</text><text x="44.0" y="82.0" font-family="system-ui, -apple-system, sans-serif" font-size="14" font-weight="500" fill="#64748b">Harrow overlays Axum for server-side sar and vmstat signals</text><g><rect x="44.0" y="104.0" width="92" height="28" rx="4" fill="#fff7ed" stroke="#e2e8f0" stroke-width="1"/><rect x="56.0" y="112.0" width="12" height="12" rx="4" fill="#fff7ed" stroke="#ea580c" stroke-width="1.5"/><text x="74.0" y="122.0" font-family="monospace" font-size="12" font-weight="700" fill="#ea580c">harrow</text></g><g><rect x="156.0" y="104.0" width="92" height="28" rx="4" fill="#f8fafc" stroke="#e2e8f0" stroke-width="1"/><rect x="168.0" y="112.0" width="12" height="12" rx="4" fill="#f8fafc" stroke="#64748b" stroke-width="1.5"/><text x="186.0" y="122.0" font-family="monospace" font-size="12" font-weight="700" fill="#64748b">axum</text></g><g><rect x="44.0" y="140.0" width="642.0" height="260.0" rx="8" fill="#ffffff" stroke="#e2e8f0" stroke-width="1"/><rect x="44.0" y="140.0" width="642.0" height="4" rx="8" fill="#ea580c"/></g><text x="66.0" y="172.0" font-family="monospace" font-size="18" font-weight="700" fill="#ea580c">Server CPU Busy %</text><line x1="64.0" y1="348.0" x2="666.0" y2="348.0" stroke="#e2e8f0" stroke-width="1"/><text x="664.0" y="344.0" font-family="system-ui, -apple-system, sans-serif" font-size="10" font-weight="500" fill="#94a3b8">0.0 %</text><line x1="64.0" y1="297.3" x2="666.0" y2="297.3" stroke="#e2e8f0" stroke-width="1"/><text x="664.0" y="293.3" font-family="system-ui, -apple-system, sans-serif" font-size="10" font-weight="500" fill="#94a3b8">9.9 %</text><line x1="64.0" y1="246.7" x2="666.0" y2="246.7" stroke="#e2e8f0" stroke-width="1"/><text x="664.0" y="242.7" font-family="system-ui, -apple-system, sans-serif" font-size="10" font-weight="500" fill="#94a3b8">19.8 %</text><line x1="64.0" y1="196.0" x2="666.0" y2="196.0" stroke="#e2e8f0" stroke-width="1"/><text x="664.0" y="192.0" font-family="system-ui, -apple-system, sans-serif" font-size="10" font-weight="500" fill="#94a3b8">29.8 %</text><polyline fill="none" stroke="#ea580c" stroke-width="2.5" points="64.0,347.6 72.9,347.4 81.7,347.7 90.6,348.0 99.4,348.0 108.3,348.0 117.1,348.0 126.0,348.0 134.8,346.5 143.7,282.4 152.5,203.4 161.4,202.8 170.2,202.3 179.1,206.4 187.9,198.9 196.8,214.7 205.6,198.5 214.5,209.8 223.4,208.2 232.2,207.6 241.1,207.0 249.9,209.8 258.8,208.5 267.6,204.9 276.5,196.0 285.3,203.8 294.2,202.3 303.0,198.5 311.9,203.9 320.7,200.7 329.6,208.4 338.4,201.9 347.3,199.3 356.1,206.6 365.0,210.6 373.9,212.6 382.7,206.8 391.6,209.1 400.4,208.6 409.3,205.1 418.1,196.3 427.0,201.6 435.8,207.6 444.7,201.6 453.5,213.8 462.4,202.4 471.2,203.1 480.1,210.0 488.9,203.8 497.8,203.1 506.6,205.1 515.5,208.3 524.4,205.5 533.2,220.9 542.1,203.9 550.9,205.9 559.8,214.3 568.6,198.0 577.5,201.9 586.3,206.0 595.2,203.6 604.0,202.2 612.9,213.1 621.7,206.4 630.6,202.3 639.4,209.5 648.3,206.4 657.1,205.9 666.0,205.6" stroke-linejoin="round" stroke-linecap="round"/><polyline fill="none" stroke="#64748b" stroke-width="2.5" points="64.0,347.7 72.9,347.6 81.7,347.7 90.6,347.9 99.4,347.9 108.3,347.9 117.1,347.9 126.0,347.8 134.8,346.4 143.7,263.3 152.5,227.2 161.4,214.4 170.2,231.4 179.1,226.2 187.9,236.9 196.8,222.0 205.6,229.2 214.5,225.3 223.4,227.1 232.2,226.0 241.1,225.9 249.9,221.4 258.8,230.7 267.6,228.3 276.5,239.5 285.3,225.1 294.2,219.9 303.0,225.4 311.9,227.8 320.7,226.4 329.6,224.2 338.4,244.5 347.3,218.1 356.1,226.6 365.0,234.3 373.9,229.5 382.7,233.2 391.6,229.9 400.4,232.9 409.3,238.6 418.1,226.8 427.0,228.7 435.8,223.9 444.7,233.7 453.5,229.1 462.4,233.1 471.2,228.7 480.1,233.6 488.9,221.2 497.8,236.9 506.6,233.7 515.5,226.2 524.4,232.6 533.2,223.8 542.1,229.0 550.9,238.3 559.8,225.1 568.6,230.9 577.5,239.7 586.3,227.2 595.2,221.5 604.0,233.3 612.9,232.5 621.7,235.1 630.6,220.9 639.4,227.3 648.3,221.2 657.1,233.1 666.0,228.7" stroke-linejoin="round" stroke-linecap="round"/><text x="64.0" y="366.0" font-family="monospace" font-size="12" font-weight="600" fill="#ea580c">harrow avg 24.1 % peak 29.8</text><text x="64.0" y="382.0" font-family="monospace" font-size="12" font-weight="600" fill="#64748b">axum avg 20.2 % peak 26.2</text><g><rect x="714.0" y="140.0" width="642.0" height="260.0" rx="8" fill="#ffffff" stroke="#e2e8f0" stroke-width="1"/><rect x="714.0" y="140.0" width="642.0" height="4" rx="8" fill="#ea580c"/></g><text x="736.0" y="172.0" font-family="monospace" font-size="18" font-weight="700" fill="#ea580c">Server Net TX</text><line x1="734.0" y1="348.0" x2="1336.0" y2="348.0" stroke="#e2e8f0" stroke-width="1"/><text x="1334.0" y="344.0" font-family="system-ui, -apple-system, sans-serif" font-size="10" font-weight="500" fill="#94a3b8">0.0 MB/s</text><line x1="734.0" y1="297.3" x2="1336.0" y2="297.3" stroke="#e2e8f0" stroke-width="1"/><text x="1334.0" y="293.3" font-family="system-ui, -apple-system, sans-serif" font-size="10" font-weight="500" fill="#94a3b8">410.1 MB/s</text><line x1="734.0" y1="246.7" x2="1336.0" y2="246.7" stroke="#e2e8f0" stroke-width="1"/><text x="1334.0" y="242.7" font-family="system-ui, -apple-system, sans-serif" font-size="10" font-weight="500" fill="#94a3b8">820.2 MB/s</text><line x1="734.0" y1="196.0" x2="1336.0" y2="196.0" stroke="#e2e8f0" stroke-width="1"/><text x="1334.0" y="192.0" font-family="system-ui, -apple-system, sans-serif" font-size="10" font-weight="500" fill="#94a3b8">1230.3 MB/s</text><polyline fill="none" stroke="#ea580c" stroke-width="2.5" points="734.0,348.0 742.9,348.0 751.7,348.0 760.6,348.0 769.4,348.0 778.3,348.0 787.1,348.0 796.0,348.0 804.8,276.9 813.7,259.4 822.5,259.4 831.4,259.2 840.2,260.0 849.1,259.9 857.9,259.6 866.8,259.0 875.6,258.9 884.5,259.0 893.4,259.5 902.2,260.3 911.1,260.0 919.9,259.1 928.8,260.1 937.6,259.2 946.5,258.6 955.3,258.5 964.2,259.5 973.0,258.1 981.9,260.3 990.7,259.4 999.6,259.0 1008.4,259.2 1017.3,259.1 1026.1,259.7 1035.0,259.7 1043.9,259.0 1052.7,258.9 1061.6,259.1 1070.4,258.9 1079.3,259.4 1088.1,258.3 1097.0,259.2 1105.8,258.4 1114.7,259.3 1123.5,258.8 1132.4,259.0 1141.2,258.3 1150.1,259.6 1158.9,258.9 1167.8,258.7 1176.6,259.1 1185.5,259.3 1194.4,259.1 1203.2,259.7 1212.1,259.6 1220.9,258.8 1229.8,259.6 1238.6,258.7 1247.5,259.0 1256.3,258.8 1265.2,258.7 1274.0,259.8 1282.9,259.8 1291.7,259.2 1300.6,259.7 1309.4,259.0 1318.3,259.1 1327.1,259.4 1336.0,258.9" stroke-linejoin="round" stroke-linecap="round"/><polyline fill="none" stroke="#64748b" stroke-width="2.5" points="734.0,348.0 742.9,348.0 751.7,348.0 760.6,348.0 769.4,348.0 778.3,348.0 787.1,348.0 796.0,347.8 804.8,200.0 813.7,196.9 822.5,196.0 831.4,196.5 840.2,197.1 849.1,196.6 857.9,196.7 866.8,197.1 875.6,198.2 884.5,197.8 893.4,197.5 902.2,197.2 911.1,196.9 919.9,197.8 928.8,197.0 937.6,197.6 946.5,197.6 955.3,197.8 964.2,196.5 973.0,197.5 981.9,197.4 990.7,197.3 999.6,197.4 1008.4,196.0 1017.3,196.8 1026.1,199.7 1035.0,197.9 1043.9,196.8 1052.7,197.7 1061.6,197.6 1070.4,197.0 1079.3,196.6 1088.1,196.5 1097.0,197.1 1105.8,196.2 1114.7,196.8 1123.5,198.3 1132.4,197.7 1141.2,196.6 1150.1,197.6 1158.9,197.0 1167.8,197.2 1176.6,196.8 1185.5,197.7 1194.4,198.1 1203.2,197.7 1212.1,198.1 1220.9,197.7 1229.8,197.5 1238.6,198.3 1247.5,199.4 1256.3,199.5 1265.2,198.9 1274.0,199.0 1282.9,198.0 1291.7,198.3 1300.6,198.5 1309.4,197.6 1318.3,197.4 1327.1,198.2 1336.0,199.5" stroke-linejoin="round" stroke-linecap="round"/><text x="734.0" y="366.0" font-family="monospace" font-size="12" font-weight="600" fill="#ea580c">harrow avg 633.2 MB/s peak 727.6</text><text x="734.0" y="382.0" font-family="monospace" font-size="12" font-weight="600" fill="#64748b">axum avg 1076.5 MB/s peak 1230.3</text><g><rect x="44.0" y="428.0" width="642.0" height="260.0" rx="8" fill="#ffffff" stroke="#e2e8f0" stroke-width="1"/><rect x="44.0" y="428.0" width="642.0" height="4" rx="8" fill="#ea580c"/></g><text x="66.0" y="460.0" font-family="monospace" font-size="18" font-weight="700" fill="#ea580c">VMstat Runnable (r)</text><line x1="64.0" y1="636.0" x2="666.0" y2="636.0" stroke="#e2e8f0" stroke-width="1"/><text x="664.0" y="632.0" font-family="system-ui, -apple-system, sans-serif" font-size="10" font-weight="500" fill="#94a3b8">0.0 threads</text><line x1="64.0" y1="585.3" x2="666.0" y2="585.3" stroke="#e2e8f0" stroke-width="1"/><text x="664.0" y="581.3" font-family="system-ui, -apple-system, sans-serif" font-size="10" font-weight="500" fill="#94a3b8">8.3 threads</text><line x1="64.0" y1="534.7" x2="666.0" y2="534.7" stroke="#e2e8f0" stroke-width="1"/><text x="664.0" y="530.7" font-family="system-ui, -apple-system, sans-serif" font-size="10" font-weight="500" fill="#94a3b8">16.7 threads</text><line x1="64.0" y1="484.0" x2="666.0" y2="484.0" stroke="#e2e8f0" stroke-width="1"/><text x="664.0" y="480.0" font-family="system-ui, -apple-system, sans-serif" font-size="10" font-weight="500" fill="#94a3b8">25.0 threads</text><polyline fill="none" stroke="#ea580c" stroke-width="2.5" points="64.0,636.0 72.9,636.0 81.7,636.0 90.6,636.0 99.4,636.0 108.3,636.0 117.1,636.0 126.0,636.0 134.8,636.0 143.7,636.0 152.5,636.0 161.4,617.8 170.2,587.4 179.1,520.5 187.9,538.7 196.8,496.2 205.6,544.8 214.5,550.9 223.4,526.6 232.2,544.8 241.1,520.5 249.9,532.6 258.8,569.1 267.6,538.7 276.5,520.5 285.3,550.9 294.2,544.8 303.0,557.0 311.9,514.4 320.7,611.7 329.6,526.6 338.4,484.0 347.3,575.2 356.1,593.4 365.0,563.0 373.9,569.1 382.7,593.4 391.6,569.1 400.4,575.2 409.3,611.7 418.1,508.3 427.0,544.8 435.8,563.0 444.7,581.3 453.5,569.1 462.4,544.8 471.2,508.3 480.1,544.8 488.9,599.5 497.8,575.2 506.6,550.9 515.5,617.8 524.4,538.7 533.2,544.8 542.1,526.6 550.9,623.8 559.8,514.4 568.6,544.8 577.5,496.2 586.3,581.3 595.2,599.5 604.0,544.8 612.9,575.2 621.7,538.7 630.6,593.4 639.4,557.0 648.3,629.9 657.1,544.8 666.0,520.5" stroke-linejoin="round" stroke-linecap="round"/><polyline fill="none" stroke="#64748b" stroke-width="2.5" points="64.0,636.0 72.9,636.0 81.7,636.0 90.6,636.0 99.4,636.0 108.3,636.0 117.1,636.0 126.0,636.0 134.8,636.0 143.7,636.0 152.5,563.0 161.4,575.2 170.2,623.8 179.1,569.1 187.9,538.7 196.8,557.0 205.6,526.6 214.5,581.3 223.4,575.2 232.2,587.4 241.1,623.8 249.9,514.4 258.8,629.9 267.6,550.9 276.5,569.1 285.3,623.8 294.2,623.8 303.0,575.2 311.9,605.6 320.7,629.9 329.6,629.9 338.4,575.2 347.3,587.4 356.1,617.8 365.0,617.8 373.9,605.6 382.7,629.9 391.6,629.9 400.4,569.1 409.3,629.9 418.1,563.0 427.0,599.5 435.8,623.8 444.7,587.4 453.5,557.0 462.4,563.0 471.2,575.2 480.1,623.8 488.9,581.3 497.8,575.2 506.6,526.6 515.5,550.9 524.4,550.9 533.2,593.4 542.1,581.3 550.9,581.3 559.8,605.6 568.6,629.9 577.5,617.8 586.3,557.0 595.2,617.8 604.0,575.2 612.9,587.4 621.7,557.0 630.6,605.6 639.4,550.9 648.3,629.9 657.1,593.4 666.0,587.4" stroke-linejoin="round" stroke-linecap="round"/><text x="64.0" y="654.0" font-family="monospace" font-size="12" font-weight="600" fill="#ea580c">harrow avg 11.1 threads peak 25.0</text><text x="64.0" y="670.0" font-family="monospace" font-size="12" font-weight="600" fill="#64748b">axum avg 6.8 threads peak 20.0</text><g><rect x="714.0" y="428.0" width="642.0" height="260.0" rx="8" fill="#ffffff" stroke="#e2e8f0" stroke-width="1"/><rect x="714.0" y="428.0" width="642.0" height="4" rx="8" fill="#ea580c"/></g><text x="736.0" y="460.0" font-family="monospace" font-size="18" font-weight="700" fill="#ea580c">VMstat Context Switches</text><line x1="734.0" y1="636.0" x2="1336.0" y2="636.0" stroke="#e2e8f0" stroke-width="1"/><text x="1334.0" y="632.0" font-family="system-ui, -apple-system, sans-serif" font-size="10" font-weight="500" fill="#94a3b8">0.0 /s</text><line x1="734.0" y1="585.3" x2="1336.0" y2="585.3" stroke="#e2e8f0" stroke-width="1"/><text x="1334.0" y="581.3" font-family="system-ui, -apple-system, sans-serif" font-size="10" font-weight="500" fill="#94a3b8">574377.7 /s</text><line x1="734.0" y1="534.7" x2="1336.0" y2="534.7" stroke="#e2e8f0" stroke-width="1"/><text x="1334.0" y="530.7" font-family="system-ui, -apple-system, sans-serif" font-size="10" font-weight="500" fill="#94a3b8">1148755.3 /s</text><line x1="734.0" y1="484.0" x2="1336.0" y2="484.0" stroke="#e2e8f0" stroke-width="1"/><text x="1334.0" y="480.0" font-family="system-ui, -apple-system, sans-serif" font-size="10" font-weight="500" fill="#94a3b8">1723133.0 /s</text><polyline fill="none" stroke="#ea580c" stroke-width="2.5" points="734.0,636.0 742.9,636.0 751.7,635.9 760.6,636.0 769.4,636.0 778.3,636.0 787.1,636.0 796.0,636.0 804.8,636.0 813.7,636.0 822.5,636.0 831.4,525.4 840.2,488.5 849.1,488.3 857.9,489.6 866.8,486.3 875.6,487.1 884.5,488.9 893.4,488.6 902.2,491.0 911.1,489.8 919.9,487.5 928.8,484.0 937.6,484.9 946.5,489.4 955.3,485.2 964.2,488.1 973.0,490.1 981.9,492.5 990.7,487.4 999.6,491.5 1008.4,486.7 1017.3,489.3 1026.1,488.9 1035.0,487.5 1043.9,488.9 1052.7,488.0 1061.6,488.5 1070.4,489.4 1079.3,492.0 1088.1,488.3 1097.0,489.6 1105.8,488.4 1114.7,491.1 1123.5,491.0 1132.4,491.8 1141.2,488.7 1150.1,489.5 1158.9,489.2 1167.8,492.2 1176.6,488.1 1185.5,488.6 1194.4,491.5 1203.2,488.9 1212.1,488.8 1220.9,490.0 1229.8,487.4 1238.6,488.5 1247.5,489.4 1256.3,486.0 1265.2,489.5 1274.0,490.6 1282.9,489.3 1291.7,490.5 1300.6,486.6 1309.4,486.3 1318.3,488.3 1327.1,488.6 1336.0,489.4" stroke-linejoin="round" stroke-linecap="round"/><polyline fill="none" stroke="#64748b" stroke-width="2.5" points="734.0,636.0 742.9,636.0 751.7,636.0 760.6,636.0 769.4,636.0 778.3,636.0 787.1,636.0 796.0,636.0 804.8,636.0 813.7,636.0 822.5,633.2 831.4,610.1 840.2,610.3 849.1,609.8 857.9,610.4 866.8,610.4 875.6,610.2 884.5,610.2 893.4,610.3 902.2,610.3 911.1,610.7 919.9,610.5 928.8,610.8 937.6,610.7 946.5,610.9 955.3,610.6 964.2,610.7 973.0,610.6 981.9,610.7 990.7,610.6 999.6,610.8 1008.4,610.9 1017.3,610.7 1026.1,610.7 1035.0,610.3 1043.9,610.8 1052.7,611.0 1061.6,610.8 1070.4,610.8 1079.3,610.8 1088.1,610.9 1097.0,610.5 1105.8,610.5 1114.7,610.5 1123.5,610.9 1132.4,611.0 1141.2,611.0 1150.1,610.8 1158.9,611.0 1167.8,610.6 1176.6,610.6 1185.5,610.7 1194.4,610.6 1203.2,610.6 1212.1,610.7 1220.9,610.6 1229.8,610.7 1238.6,611.0 1247.5,610.9 1256.3,610.9 1265.2,610.9 1274.0,610.8 1282.9,611.2 1291.7,611.0 1300.6,611.1 1309.4,611.2 1318.3,611.2 1327.1,611.2 1336.0,611.1" stroke-linejoin="round" stroke-linecap="round"/><text x="734.0" y="654.0" font-family="monospace" font-size="12" font-weight="600" fill="#ea580c">harrow avg 1396291.8 /s peak 1723133.0</text><text x="734.0" y="670.0" font-family="monospace" font-size="12" font-weight="600" fill="#64748b">axum avg 241568.0 /s peak 296926.0</text></svg>