<svg xmlns="http://www.w3.org/2000/svg" width="1400" height="860" viewBox="0 0 1400 860" fill="none">
<rect x="0" y="0" width="1400" height="860" fill="#fafafa"/>
<text x="44.0" y="52.0" font-family="monospace" font-size="18" font-weight="700" fill="#1e293b">server telemetry :: text-c128</text><text x="44.0" y="82.0" font-family="system-ui, -apple-system, sans-serif" font-size="14" font-weight="500" fill="#64748b">Harrow overlays Axum for server-side sar and vmstat signals</text><g><rect x="44.0" y="104.0" width="92" height="28" rx="4" fill="#fff7ed" stroke="#e2e8f0" stroke-width="1"/><rect x="56.0" y="112.0" width="12" height="12" rx="4" fill="#fff7ed" stroke="#ea580c" stroke-width="1.5"/><text x="74.0" y="122.0" font-family="monospace" font-size="12" font-weight="700" fill="#ea580c">harrow</text></g><g><rect x="156.0" y="104.0" width="92" height="28" rx="4" fill="#f8fafc" stroke="#e2e8f0" stroke-width="1"/><rect x="168.0" y="112.0" width="12" height="12" rx="4" fill="#f8fafc" stroke="#64748b" stroke-width="1.5"/><text x="186.0" y="122.0" font-family="monospace" font-size="12" font-weight="700" fill="#64748b">axum</text></g><g><rect x="44.0" y="140.0" width="642.0" height="260.0" rx="8" fill="#ffffff" stroke="#e2e8f0" stroke-width="1"/><rect x="44.0" y="140.0" width="642.0" height="4" rx="8" fill="#ea580c"/></g><text x="66.0" y="172.0" font-family="monospace" font-size="18" font-weight="700" fill="#ea580c">Server CPU Busy %</text><line x1="64.0" y1="348.0" x2="666.0" y2="348.0" stroke="#e2e8f0" stroke-width="1"/><text x="664.0" y="344.0" font-family="system-ui, -apple-system, sans-serif" font-size="10" font-weight="500" fill="#94a3b8">0.0 %</text><line x1="64.0" y1="297.3" x2="666.0" y2="297.3" stroke="#e2e8f0" stroke-width="1"/><text x="664.0" y="293.3" font-family="system-ui, -apple-system, sans-serif" font-size="10" font-weight="500" fill="#94a3b8">8.3 %</text><line x1="64.0" y1="246.7" x2="666.0" y2="246.7" stroke="#e2e8f0" stroke-width="1"/><text x="664.0" y="242.7" font-family="system-ui, -apple-system, sans-serif" font-size="10" font-weight="500" fill="#94a3b8">16.7 %</text><line x1="64.0" y1="196.0" x2="666.0" y2="196.0" stroke="#e2e8f0" stroke-width="1"/><text x="664.0" y="192.0" font-family="system-ui, -apple-system, sans-serif" font-size="10" font-weight="500" fill="#94a3b8">25.0 %</text><polyline fill="none" stroke="#ea580c" stroke-width="2.5" points="64.0,347.4 72.9,347.8 81.7,347.8 90.6,348.0 99.4,348.0 108.3,348.0 117.1,347.9 126.0,347.9 134.8,344.7 143.7,250.2 152.5,203.9 161.4,201.2 170.2,213.1 179.1,220.1 187.9,204.8 196.8,202.3 205.6,208.4 214.5,209.4 223.4,198.9 232.2,214.0 241.1,206.0 249.9,215.4 258.8,207.6 267.6,207.0 276.5,212.2 285.3,211.4 294.2,196.0 303.0,215.7 311.9,203.3 320.7,204.5 329.6,215.1 338.4,211.8 347.3,207.2 356.1,202.9 365.0,210.4 373.9,197.5 382.7,205.6 391.6,203.7 400.4,214.7 409.3,202.9 418.1,207.7 427.0,209.4 435.8,203.3 444.7,205.5 453.5,213.5 462.4,203.7 471.2,206.1 480.1,207.1 488.9,213.1 497.8,207.6 506.6,207.2 515.5,210.9 524.4,209.3 533.2,206.8 542.1,203.8 550.9,214.6 559.8,203.5 568.6,202.7 577.5,210.7 586.3,211.4 595.2,207.5 604.0,207.1 612.9,215.7 621.7,212.1 630.6,207.3 639.4,209.9 648.3,203.9 657.1,203.3 666.0,210.0" stroke-linejoin="round" stroke-linecap="round"/><polyline fill="none" stroke="#64748b" stroke-width="2.5" points="64.0,347.5 72.9,347.8 81.7,347.9 90.6,347.9 99.4,347.9 108.3,347.9 117.1,347.9 126.0,347.8 134.8,345.9 143.7,274.3 152.5,219.8 161.4,234.4 170.2,224.2 179.1,223.6 187.9,228.4 196.8,227.0 205.6,223.6 214.5,224.9 223.4,226.6 232.2,236.9 241.1,223.1 249.9,227.9 258.8,232.0 267.6,225.8 276.5,221.9 285.3,225.1 294.2,223.2 303.0,224.1 311.9,226.5 320.7,234.6 329.6,229.9 338.4,228.3 347.3,230.5 356.1,231.4 365.0,222.0 373.9,222.5 382.7,221.2 391.6,235.9 400.4,221.9 409.3,236.7 418.1,240.1 427.0,225.0 435.8,225.4 444.7,231.4 453.5,225.8 462.4,223.4 471.2,220.2 480.1,227.7 488.9,223.1 497.8,225.3 506.6,227.1 515.5,222.1 524.4,226.0 533.2,217.1 542.1,234.0 550.9,223.1 559.8,234.9 568.6,223.6 577.5,232.3 586.3,225.7 595.2,226.3 604.0,237.6 612.9,222.7 621.7,232.2 630.6,220.8 639.4,230.0 648.3,217.1 657.1,227.4 666.0,221.2" stroke-linejoin="round" stroke-linecap="round"/><text x="64.0" y="366.0" font-family="monospace" font-size="12" font-weight="600" fill="#ea580c">harrow avg 20.0 % peak 25.0</text><text x="64.0" y="382.0" font-family="monospace" font-size="12" font-weight="600" fill="#64748b">axum avg 17.3 % peak 21.6</text><g><rect x="714.0" y="140.0" width="642.0" height="260.0" rx="8" fill="#ffffff" stroke="#e2e8f0" stroke-width="1"/><rect x="714.0" y="140.0" width="642.0" height="4" rx="8" fill="#ea580c"/></g><text x="736.0" y="172.0" font-family="monospace" font-size="18" font-weight="700" fill="#ea580c">Server Net TX</text><line x1="734.0" y1="348.0" x2="1336.0" y2="348.0" stroke="#e2e8f0" stroke-width="1"/><text x="1334.0" y="344.0" font-family="system-ui, -apple-system, sans-serif" font-size="10" font-weight="500" fill="#94a3b8">0.0 MB/s</text><line x1="734.0" y1="297.3" x2="1336.0" y2="297.3" stroke="#e2e8f0" stroke-width="1"/><text x="1334.0" y="293.3" font-family="system-ui, -apple-system, sans-serif" font-size="10" font-weight="500" fill="#94a3b8">60.4 MB/s</text><line x1="734.0" y1="246.7" x2="1336.0" y2="246.7" stroke="#e2e8f0" stroke-width="1"/><text x="1334.0" y="242.7" font-family="system-ui, -apple-system, sans-serif" font-size="10" font-weight="500" fill="#94a3b8">120.9 MB/s</text><line x1="734.0" y1="196.0" x2="1336.0" y2="196.0" stroke="#e2e8f0" stroke-width="1"/><text x="1334.0" y="192.0" font-family="system-ui, -apple-system, sans-serif" font-size="10" font-weight="500" fill="#94a3b8">181.3 MB/s</text><polyline fill="none" stroke="#ea580c" stroke-width="2.5" points="734.0,348.0 742.9,348.0 751.7,348.0 760.6,348.0 769.4,348.0 778.3,348.0 787.1,348.0 796.0,348.0 804.8,275.9 813.7,273.6 822.5,273.6 831.4,273.9 840.2,273.6 849.1,274.5 857.9,273.9 866.8,274.1 875.6,274.5 884.5,274.0 893.4,273.7 902.2,273.8 911.1,274.0 919.9,273.7 928.8,274.4 937.6,274.4 946.5,274.5 955.3,273.8 964.2,273.9 973.0,273.6 981.9,273.6 990.7,274.2 999.6,274.1 1008.4,274.3 1017.3,274.7 1026.1,274.8 1035.0,274.3 1043.9,273.9 1052.7,273.5 1061.6,273.9 1070.4,274.0 1079.3,274.5 1088.1,274.1 1097.0,273.9 1105.8,274.7 1114.7,274.3 1123.5,274.1 1132.4,274.2 1141.2,274.1 1150.1,274.6 1158.9,274.7 1167.8,274.7 1176.6,274.9 1185.5,274.6 1194.4,274.2 1203.2,274.5 1212.1,274.4 1220.9,274.6 1229.8,274.4 1238.6,274.3 1247.5,273.9 1256.3,274.7 1265.2,274.7 1274.0,273.9 1282.9,273.5 1291.7,274.4 1300.6,273.6 1309.4,273.8 1318.3,273.8 1327.1,274.0 1336.0,274.1" stroke-linejoin="round" stroke-linecap="round"/><polyline fill="none" stroke="#64748b" stroke-width="2.5" points="734.0,348.0 742.9,348.0 751.7,348.0 760.6,348.0 769.4,348.0 778.3,348.0 787.1,348.0 796.0,348.0 804.8,213.3 813.7,198.5 822.5,198.2 831.4,199.3 840.2,199.4 849.1,200.1 857.9,199.8 866.8,199.0 875.6,197.6 884.5,197.9 893.4,197.9 902.2,196.7 911.1,198.3 919.9,199.1 928.8,199.1 937.6,198.4 946.5,197.7 955.3,198.5 964.2,200.7 973.0,198.2 981.9,197.6 990.7,198.6 999.6,196.3 1008.4,197.8 1017.3,197.6 1026.1,198.3 1035.0,198.2 1043.9,197.2 1052.7,197.6 1061.6,197.7 1070.4,199.3 1079.3,197.7 1088.1,197.1 1097.0,197.3 1105.8,199.4 1114.7,199.1 1123.5,199.3 1132.4,198.9 1141.2,198.8 1150.1,197.7 1158.9,198.7 1167.8,198.8 1176.6,197.5 1185.5,197.3 1194.4,197.3 1203.2,198.7 1212.1,198.5 1220.9,197.3 1229.8,198.2 1238.6,198.1 1247.5,198.0 1256.3,197.0 1265.2,197.2 1274.0,197.7 1282.9,197.7 1291.7,196.0 1300.6,197.8 1309.4,197.5 1318.3,197.4 1327.1,197.8 1336.0,197.8" stroke-linejoin="round" stroke-linecap="round"/><text x="734.0" y="366.0" font-family="monospace" font-size="12" font-weight="600" fill="#ea580c">harrow avg 77.8 MB/s peak 88.9</text><text x="734.0" y="382.0" font-family="monospace" font-size="12" font-weight="600" fill="#64748b">axum avg 157.8 MB/s peak 181.3</text><g><rect x="44.0" y="428.0" width="642.0" height="260.0" rx="8" fill="#ffffff" stroke="#e2e8f0" stroke-width="1"/><rect x="44.0" y="428.0" width="642.0" height="4" rx="8" fill="#ea580c"/></g><text x="66.0" y="460.0" font-family="monospace" font-size="18" font-weight="700" fill="#ea580c">VMstat Runnable (r)</text><line x1="64.0" y1="636.0" x2="666.0" y2="636.0" stroke="#e2e8f0" stroke-width="1"/><text x="664.0" y="632.0" font-family="system-ui, -apple-system, sans-serif" font-size="10" font-weight="500" fill="#94a3b8">0.0 threads</text><line x1="64.0" y1="585.3" x2="666.0" y2="585.3" stroke="#e2e8f0" stroke-width="1"/><text x="664.0" y="581.3" font-family="system-ui, -apple-system, sans-serif" font-size="10" font-weight="500" fill="#94a3b8">8.0 threads</text><line x1="64.0" y1="534.7" x2="666.0" y2="534.7" stroke="#e2e8f0" stroke-width="1"/><text x="664.0" y="530.7" font-family="system-ui, -apple-system, sans-serif" font-size="10" font-weight="500" fill="#94a3b8">16.0 threads</text><line x1="64.0" y1="484.0" x2="666.0" y2="484.0" stroke="#e2e8f0" stroke-width="1"/><text x="664.0" y="480.0" font-family="system-ui, -apple-system, sans-serif" font-size="10" font-weight="500" fill="#94a3b8">24.0 threads</text><polyline fill="none" stroke="#ea580c" stroke-width="2.5" points="64.0,636.0 72.9,636.0 81.7,636.0 90.6,636.0 99.4,636.0 108.3,636.0 117.1,636.0 126.0,636.0 134.8,636.0 143.7,636.0 152.5,572.7 161.4,560.0 170.2,572.7 179.1,515.7 187.9,515.7 196.8,534.7 205.6,579.0 214.5,585.3 223.4,629.7 232.2,610.7 241.1,560.0 249.9,553.7 258.8,610.7 267.6,598.0 276.5,560.0 285.3,579.0 294.2,604.3 303.0,541.0 311.9,604.3 320.7,591.7 329.6,560.0 338.4,591.7 347.3,572.7 356.1,547.3 365.0,553.7 373.9,610.7 382.7,553.7 391.6,566.3 400.4,566.3 409.3,623.3 418.1,522.0 427.0,547.3 435.8,572.7 444.7,553.7 453.5,528.3 462.4,490.3 471.2,566.3 480.1,591.7 488.9,566.3 497.8,522.0 506.6,572.7 515.5,560.0 524.4,572.7 533.2,541.0 542.1,585.3 550.9,572.7 559.8,610.7 568.6,534.7 577.5,579.0 586.3,560.0 595.2,541.0 604.0,484.0 612.9,623.3 621.7,598.0 630.6,566.3 639.4,572.7 648.3,585.3 657.1,604.3 666.0,509.3" stroke-linejoin="round" stroke-linecap="round"/><polyline fill="none" stroke="#64748b" stroke-width="2.5" points="64.0,636.0 72.9,636.0 81.7,636.0 90.6,636.0 99.4,636.0 108.3,636.0 117.1,636.0 126.0,636.0 134.8,636.0 143.7,636.0 152.5,636.0 161.4,566.3 170.2,591.7 179.1,585.3 187.9,591.7 196.8,598.0 205.6,623.3 214.5,617.0 223.4,629.7 232.2,591.7 241.1,541.0 249.9,579.0 258.8,623.3 267.6,585.3 276.5,623.3 285.3,591.7 294.2,579.0 303.0,541.0 311.9,541.0 320.7,572.7 329.6,623.3 338.4,591.7 347.3,629.7 356.1,598.0 365.0,585.3 373.9,585.3 382.7,591.7 391.6,591.7 400.4,579.0 409.3,604.3 418.1,623.3 427.0,560.0 435.8,566.3 444.7,534.7 453.5,604.3 462.4,566.3 471.2,591.7 480.1,541.0 488.9,566.3 497.8,534.7 506.6,572.7 515.5,598.0 524.4,553.7 533.2,541.0 542.1,560.0 550.9,629.7 559.8,572.7 568.6,610.7 577.5,598.0 586.3,629.7 595.2,547.3 604.0,560.0 612.9,591.7 621.7,598.0 630.6,560.0 639.4,553.7 648.3,572.7 657.1,572.7 666.0,534.7" stroke-linejoin="round" stroke-linecap="round"/><text x="64.0" y="654.0" font-family="monospace" font-size="12" font-weight="600" fill="#ea580c">harrow avg 9.3 threads peak 24.0</text><text x="64.0" y="670.0" font-family="monospace" font-size="12" font-weight="600" fill="#64748b">axum avg 7.1 threads peak 16.0</text><g><rect x="714.0" y="428.0" width="642.0" height="260.0" rx="8" fill="#ffffff" stroke="#e2e8f0" stroke-width="1"/><rect x="714.0" y="428.0" width="642.0" height="4" rx="8" fill="#ea580c"/></g><text x="736.0" y="460.0" font-family="monospace" font-size="18" font-weight="700" fill="#ea580c">VMstat Context Switches</text><line x1="734.0" y1="636.0" x2="1336.0" y2="636.0" stroke="#e2e8f0" stroke-width="1"/><text x="1334.0" y="632.0" font-family="system-ui, -apple-system, sans-serif" font-size="10" font-weight="500" fill="#94a3b8">0.0 /s</text><line x1="734.0" y1="585.3" x2="1336.0" y2="585.3" stroke="#e2e8f0" stroke-width="1"/><text x="1334.0" y="581.3" font-family="system-ui, -apple-system, sans-serif" font-size="10" font-weight="500" fill="#94a3b8">572598.3 /s</text><line x1="734.0" y1="534.7" x2="1336.0" y2="534.7" stroke="#e2e8f0" stroke-width="1"/><text x="1334.0" y="530.7" font-family="system-ui, -apple-system, sans-serif" font-size="10" font-weight="500" fill="#94a3b8">1145196.7 /s</text><line x1="734.0" y1="484.0" x2="1336.0" y2="484.0" stroke="#e2e8f0" stroke-width="1"/><text x="1334.0" y="480.0" font-family="system-ui, -apple-system, sans-serif" font-size="10" font-weight="500" fill="#94a3b8">1717795.0 /s</text><polyline fill="none" stroke="#ea580c" stroke-width="2.5" points="734.0,636.0 742.9,636.0 751.7,635.9 760.6,636.0 769.4,636.0 778.3,636.0 787.1,636.0 796.0,636.0 804.8,636.0 813.7,636.0 822.5,635.4 831.4,493.6 840.2,488.5 849.1,488.1 857.9,487.1 866.8,487.4 875.6,487.0 884.5,486.2 893.4,486.7 902.2,485.1 911.1,486.3 919.9,488.1 928.8,487.4 937.6,487.2 946.5,487.5 955.3,485.1 964.2,486.0 973.0,485.9 981.9,487.8 990.7,487.1 999.6,488.2 1008.4,488.9 1017.3,487.6 1026.1,485.9 1035.0,485.8 1043.9,485.1 1052.7,484.4 1061.6,487.2 1070.4,487.1 1079.3,487.8 1088.1,485.5 1097.0,486.2 1105.8,486.8 1114.7,485.7 1123.5,486.1 1132.4,485.7 1141.2,485.5 1150.1,486.6 1158.9,487.0 1167.8,485.6 1176.6,484.9 1185.5,485.7 1194.4,485.2 1203.2,484.0 1212.1,485.9 1220.9,487.3 1229.8,484.7 1238.6,486.7 1247.5,485.5 1256.3,487.1 1265.2,486.0 1274.0,486.7 1282.9,485.4 1291.7,485.4 1300.6,488.0 1309.4,488.2 1318.3,484.7 1327.1,487.9 1336.0,486.4" stroke-linejoin="round" stroke-linecap="round"/><polyline fill="none" stroke="#64748b" stroke-width="2.5" points="734.0,636.0 742.9,636.0 751.7,635.9 760.6,636.0 769.4,636.0 778.3,636.0 787.1,636.0 796.0,636.0 804.8,636.0 813.7,636.0 822.5,636.0 831.4,612.9 840.2,612.8 849.1,612.6 857.9,612.6 866.8,612.6 875.6,613.1 884.5,612.7 893.4,612.5 902.2,612.5 911.1,612.7 919.9,612.7 928.8,612.5 937.6,612.2 946.5,612.0 955.3,612.0 964.2,611.4 973.0,611.9 981.9,611.8 990.7,611.4 999.6,611.5 1008.4,611.7 1017.3,611.7 1026.1,611.7 1035.0,611.6 1043.9,612.5 1052.7,612.1 1061.6,611.8 1070.4,611.9 1079.3,612.2 1088.1,612.2 1097.0,612.3 1105.8,612.2 1114.7,611.9 1123.5,611.8 1132.4,611.8 1141.2,611.8 1150.1,611.7 1158.9,611.9 1167.8,611.9 1176.6,611.8 1185.5,612.2 1194.4,611.9 1203.2,611.9 1212.1,611.7 1220.9,611.9 1229.8,612.0 1238.6,612.1 1247.5,611.6 1256.3,611.9 1265.2,611.8 1274.0,612.1 1282.9,612.2 1291.7,612.2 1300.6,612.4 1309.4,612.3 1318.3,612.2 1327.1,612.3 1336.0,612.4" stroke-linejoin="round" stroke-linecap="round"/><text x="734.0" y="654.0" font-family="monospace" font-size="12" font-weight="600" fill="#ea580c">harrow avg 1419408.7 /s peak 1717795.0</text><text x="734.0" y="670.0" font-family="monospace" font-size="12" font-weight="600" fill="#64748b">axum avg 227072.6 /s peak 278247.0</text></svg>